<svg width="64" height="53" viewBox="0 0 64 53" fill="none" xmlns="http://www.w3.org/2000/svg">
<path d="M32.0009 52.4491C27.5997 52.4491 24.0195 48.8689 24.0195 44.4677C24.0195 40.0665 27.5997 36.4863 32.0009 36.4863C36.4021 36.4863 39.9823 40.0665 39.9823 44.4677C39.9823 48.8689 36.4021 52.4491 32.0009 52.4491ZM32.0009 40.287C29.6962 40.287 27.8202 42.163 27.8202 44.4677C27.8202 46.7724 29.6962 48.6484 32.0009 48.6484C34.3056 48.6484 36.1816 46.7724 36.1816 44.4677C36.1816 42.163 34.3056 40.287 32.0009 40.287Z" fill="#290350"/>
<path d="M53.4991 24.8685C53.0126 24.8685 52.5261 24.683 52.1551 24.312C46.7719 18.9288 39.613 15.9628 31.9995 15.9628C24.386 15.9628 17.2271 18.9273 11.8439 24.312C11.102 25.0539 9.89791 25.0539 9.15603 24.312C8.41414 23.5702 8.41414 22.3661 9.15603 21.6242C15.2584 15.5219 23.3705 12.1621 31.9995 12.1621C40.6285 12.1621 48.7406 15.5219 54.843 21.6242C55.5848 22.3661 55.5848 23.5702 54.843 24.312C54.472 24.683 53.9855 24.8685 53.4991 24.8685Z" fill="#F370FF"/>
<path d="M62.0997 16.2683C61.6132 16.2683 61.1267 16.0829 60.7558 15.7119C53.0754 8.03155 42.8623 3.80066 32 3.80066C21.1377 3.80066 10.9246 8.03003 3.24423 15.7119C2.50234 16.4538 1.2983 16.4538 0.556416 15.7119C-0.185472 14.97 -0.185472 13.766 0.556416 13.0241C8.95587 4.62616 20.1222 0 32 0C43.8778 0 55.0441 4.62616 63.4436 13.0241C64.1855 13.766 64.1855 14.97 63.4436 15.7119C63.0726 16.0829 62.5862 16.2683 62.0997 16.2683Z" fill="#F370FF"/>
<path d="M19.1015 33.4686C18.615 33.4686 18.1285 33.2831 17.7576 32.9122C17.0157 32.1703 17.0157 30.9662 17.7576 30.2244C21.5613 26.4191 26.6207 24.3242 32.0009 24.3242C37.3811 24.3242 42.4406 26.4191 46.2443 30.2244C46.9862 30.9662 46.9862 32.1703 46.2443 32.9122C45.5024 33.6541 44.2983 33.6541 43.5565 32.9122C40.4703 29.826 36.3656 28.1249 32.0009 28.1249C27.6363 28.1249 23.5316 29.8245 20.4454 32.9122C20.0745 33.2831 19.588 33.4686 19.1015 33.4686Z" fill="#F370FF"/>
</svg>
