<svg width="64" height="61" viewBox="0 0 64 61" fill="none" xmlns="http://www.w3.org/2000/svg">
<path d="M37.1523 39.2255L42.9139 44.6608L48.6754 39.2255" stroke="#F370FF" stroke-width="3.2" stroke-linecap="round" stroke-linejoin="round"/>
<path d="M42.918 28.1121V44.6605" stroke="#F370FF" stroke-width="3.2" stroke-linecap="round" stroke-linejoin="round"/>
<path d="M25.6754 22.3254L19.9139 16.8901L14.1523 22.3254" stroke="#290350" stroke-width="3.2" stroke-linecap="round" stroke-linejoin="round"/>
<path d="M19.918 33.44V16.8901" stroke="#290350" stroke-width="3.2" stroke-linecap="round" stroke-linejoin="round"/>
<path d="M42.918 52.2861C52.4449 52.2861 60.168 45.0003 60.168 36.0129C60.168 27.0254 52.4449 19.7396 42.918 19.7396C33.391 19.7396 25.668 27.0254 25.668 36.0129C25.668 45.0003 33.391 52.2861 42.918 52.2861Z" stroke="#290350" stroke-width="3.2" stroke-linecap="round" stroke-linejoin="round"/>
<path d="M34.1392 15.9534C31.0298 11.6884 25.8204 8.89075 19.918 8.89075C10.3916 8.89075 2.66797 16.1771 2.66797 25.164C2.66797 34.1508 10.3916 41.4372 19.918 41.4372C20.1594 41.4372 20.3996 41.4318 20.6381 41.4223" stroke="#F370FF" stroke-width="3.2" stroke-linecap="round" stroke-linejoin="round"/>
</svg>
