<svg width="375" height="398" viewBox="0 0 375 398" fill="none" xmlns="http://www.w3.org/2000/svg">
<path fill-rule="evenodd" clip-rule="evenodd" d="M468.05 218.167C470.961 218.805 472.629 221.104 471.777 223.283C447.106 286.97 359.035 441.031 80 496V479.945C313.774 430.692 429.57 308.487 461.217 220.958C462.069 218.778 465.139 217.529 468.05 218.167Z" fill="#F8AAFF"/>
<path fill-rule="evenodd" clip-rule="evenodd" d="M429.528 218.29C432.347 219.125 433.73 221.512 432.613 223.634C362.315 345.183 189.186 421.592 -43 464V429.495C253.527 409.485 395.806 277.128 422.401 220.597C423.518 218.488 426.709 217.454 429.546 218.29H429.528Z" fill="#F370FF"/>
<path d="M448.231 218.201C451.117 218.919 452.675 221.248 451.719 223.416C402.804 332.94 285.697 413.021 74 472V452.562C89.5612 448.065 369.062 381.835 441.822 220.809C442.778 218.64 445.363 217.496 448.231 218.214V218.201Z" fill="#B003D3"/>
<mask id="mask0_1_24399" style="mask-type:luminance" maskUnits="userSpaceOnUse" x="100" y="-22" width="230" height="74">
<path d="M330 -21.51H100.142V52H330V-21.51Z" fill="white"/>
</mask>
<g mask="url(#mask0_1_24399)">
<path d="M184.444 194.199C182.687 194.199 181.168 192.875 180.973 191.084C180.761 189.166 182.144 187.443 184.062 187.231C225.21 182.716 293.67 163.924 362.418 124.729C413.844 95.4135 481.854 44.896 513.784 -29.2506C518.647 -40.539 518.893 -48.7209 514.514 -53.5672C505.984 -63.0138 479.401 -62.8695 435.504 -53.1429C395.052 -44.1801 344.841 -28.3509 296.275 -13.048C250.748 1.29582 207.751 14.8503 173.47 22.7097C132.806 32.0375 111.46 31.6555 104.254 21.4706C98.4745 13.3056 102.396 0.701698 116.587 -18.1829C117.741 -19.7277 119.939 -20.0332 121.476 -18.8789C123.02 -17.7161 123.326 -15.5264 122.172 -13.9901C114.074 -3.21951 105.383 10.9715 109.958 17.4305C116.332 26.4442 147.167 21.5724 171.908 15.8943C205.917 8.09429 248.788 -5.41777 294.179 -19.7192C398.388 -52.5487 496.817 -83.5705 519.7 -58.2438C526.074 -51.1908 526.235 -40.505 520.2 -26.4837C487.507 49.4368 418.232 100.947 365.881 130.798C296.207 170.519 226.669 189.582 184.835 194.174C184.707 194.191 184.58 194.191 184.453 194.191L184.444 194.199Z" fill="#F370FF"/>
<path d="M197.506 223.956C195.766 223.956 194.264 222.658 194.043 220.892C193.806 218.974 195.172 217.234 197.082 216.997C238.178 211.93 306.562 190.838 375.251 146.848C426.677 113.916 494.695 57.1518 526.651 -26.2037C531.913 -39.9195 531.837 -49.6801 526.447 -55.2224C516.975 -64.9406 490.121 -64.287 446.614 -53.2788C406.536 -43.1447 357.156 -25.6605 309.405 -8.75344C264.54 7.12663 222.154 22.1325 188.102 31.0274C147.744 41.5603 126.144 41.6282 118.064 31.2311C111.367 22.6078 115.127 7.93295 129.564 -13.6507C130.633 -15.2548 132.806 -15.6877 134.41 -14.6098C136.015 -13.5404 136.447 -11.3676 135.37 -9.76345C119.956 13.2801 120.449 22.9218 123.58 26.9449C129.454 34.5072 150.571 33.6076 186.337 24.2713C220.1 15.4529 262.351 0.49791 307.071 -15.3312C354.975 -32.2892 404.507 -49.8244 444.899 -60.0433C492.293 -72.0361 519.793 -72.0446 531.446 -60.0857C538.915 -52.4215 539.492 -40.1741 533.178 -23.6914C500.535 61.4465 431.328 119.246 379.02 152.746C309.346 197.365 239.791 218.779 197.939 223.939C197.795 223.956 197.651 223.965 197.506 223.965V223.956Z" fill="#B003D3"/>
<path d="M212.359 258.747C210.645 258.747 209.151 257.482 208.905 255.733C208.633 253.824 209.966 252.058 211.884 251.787C252.947 246.041 321.279 222.132 389.943 172.259C441.403 134.88 509.464 70.4434 541.47 -24.2599C547.165 -41.1161 546.681 -52.8542 540.036 -59.1435C515.761 -82.0936 414.098 -41.2773 324.411 -5.25646C280.285 12.4654 238.611 29.2027 204.823 39.3537C164.804 51.3805 142.923 52.051 133.876 41.5265C125.948 32.3006 129.36 15.4784 144.324 -9.89062C145.308 -11.5542 147.447 -12.1059 149.111 -11.1213C150.774 -10.1453 151.326 -7.99792 150.341 -6.33437C137.457 15.5124 133.596 30.4843 139.172 36.9772C145.886 44.7942 167.299 43.3428 202.803 32.6741C236.286 22.6079 277.823 5.93003 321.797 -11.7324C368.809 -30.6171 417.425 -50.1383 457.41 -61.8085C504.303 -75.4988 532.083 -76.2627 544.831 -64.2105C553.641 -55.8843 554.736 -41.6847 548.082 -22.0107C515.49 74.424 446.325 139.939 394.042 177.92C324.343 228.557 254.737 252.856 212.843 258.721C212.682 258.747 212.512 258.755 212.351 258.755L212.359 258.747Z" fill="#F8AAFF"/>
</g>
</svg>
