<svg width="666" height="295" viewBox="0 0 666 295" fill="none" xmlns="http://www.w3.org/2000/svg">
<path fill-rule="evenodd" clip-rule="evenodd" d="M660.086 -37.6646C663.852 -36.562 666.01 -32.5883 664.908 -28.8212C632.988 81.2497 519.039 347.515 158.017 442.518V414.77C460.48 329.644 610.299 118.438 651.244 -32.8409C652.347 -36.608 656.319 -38.7671 660.086 -37.6646Z" fill="#F8AAFF"/>
<path fill-rule="evenodd" clip-rule="evenodd" d="M612.818 -42.7586C616.469 -41.3115 618.26 -37.1769 616.813 -33.5018C525.76 177.039 301.513 309.39 0.772522 382.848V323.08C384.851 288.419 569.14 59.1582 603.586 -38.7618C605.033 -42.414 609.166 -44.2057 612.841 -42.7586H612.818Z" fill="#F370FF"/>
<path d="M635.658 -37.5759C639.402 -36.3355 641.422 -32.3158 640.182 -28.5717C576.732 160.515 424.823 298.77 150.216 400.595V367.036C170.401 359.272 532.962 244.929 627.345 -33.0738C628.585 -36.8179 631.938 -38.7933 635.658 -37.5529V-37.5759Z" fill="#B003D3"/>
<mask id="mask0_1_24398" style="mask-type:luminance" maskUnits="userSpaceOnUse" x="100" y="-26" width="345" height="110">
<path d="M444.1 -26H100.142V84H444.1V-26Z" fill="white"/>
</mask>
<g mask="url(#mask0_1_24398)">
<path d="M226.292 296.786C223.663 296.786 221.389 294.805 221.097 292.125C220.78 289.255 222.85 286.676 225.72 286.359C287.293 279.602 389.736 251.483 492.611 192.831C569.564 148.964 671.334 73.3695 719.114 -37.5831C726.391 -54.4749 726.759 -66.7183 720.206 -73.9703C707.442 -88.1061 667.663 -87.8902 601.976 -73.3353C541.445 -59.9234 466.308 -36.2368 393.635 -13.3376C325.509 8.12645 261.168 28.4093 209.87 40.1701C149.021 54.1281 117.079 53.5565 106.296 38.3158C97.6472 26.0978 103.515 7.2374 124.75 -21.0215C126.478 -23.333 129.767 -23.7902 132.066 -22.0629C134.377 -20.3229 134.835 -17.0462 133.107 -14.7474C120.991 1.36973 107.985 22.6051 114.831 32.2703C124.369 45.7584 170.511 38.4682 207.533 29.9715C258.424 18.2996 322.575 -1.91973 390.498 -23.3203C546.436 -72.4462 693.725 -118.867 727.966 -80.9684C737.504 -70.4141 737.745 -54.4241 728.715 -33.4427C679.792 80.1643 576.13 157.244 497.793 201.912C393.533 261.351 289.477 289.877 226.876 296.748C226.685 296.773 226.495 296.773 226.304 296.773L226.292 296.786Z" fill="#F370FF"/>
<path d="M245.838 341.314C243.234 341.314 240.986 339.371 240.656 336.729C240.3 333.859 242.345 331.255 245.203 330.9C306.699 323.318 409.028 291.757 511.814 225.929C588.767 176.651 690.55 91.7092 738.368 -33.0235C746.242 -53.5477 746.128 -68.1534 738.063 -76.4469C723.889 -90.9891 683.704 -90.0112 618.601 -73.5385C558.629 -58.3739 484.736 -32.2107 413.283 -6.91106C346.147 16.8518 282.721 39.3065 231.766 52.6167C171.374 68.3782 139.051 68.4798 126.96 52.9215C116.939 40.0177 122.566 18.0584 144.17 -14.2393C145.77 -16.6397 149.021 -17.2875 151.422 -15.6745C153.822 -14.0742 154.47 -10.8228 152.857 -8.42242C129.792 26.0597 130.529 40.4876 135.216 46.5077C144.004 57.824 175.604 56.4777 229.124 42.507C279.647 29.3111 342.871 6.93261 409.79 -16.754C481.472 -42.1299 555.593 -68.3693 616.035 -83.6609C686.956 -101.607 728.106 -101.62 745.544 -83.7244C756.72 -72.2557 757.584 -53.9287 748.134 -29.2641C699.288 98.1357 595.727 184.627 517.453 234.756C413.194 301.523 309.112 333.567 246.486 341.289C246.27 341.314 246.054 341.327 245.838 341.327V341.314Z" fill="#B003D3"/>
<path d="M268.064 393.374C265.498 393.374 263.263 391.482 262.895 388.866C262.488 386.008 264.482 383.366 267.353 382.96C328.798 374.361 431.051 338.584 533.799 263.955C610.803 208.022 712.649 111.598 760.543 -30.115C769.065 -55.3384 768.341 -72.9033 758.396 -82.3145C722.073 -116.657 569.945 -55.5797 435.737 -1.67831C369.707 24.8406 307.347 49.8862 256.786 65.0761C196.902 83.0729 164.16 84.0762 150.621 68.3275C138.759 54.5219 143.865 29.3493 166.256 -8.61284C167.729 -11.1022 170.93 -11.9277 173.419 -10.4544C175.908 -8.99387 176.734 -5.78061 175.26 -3.29129C155.981 29.4001 150.202 51.804 158.546 61.5199C168.593 73.2172 200.636 71.0454 253.763 55.0807C303.867 40.0178 366.024 15.0611 431.826 -11.3689C502.174 -39.6277 574.923 -68.8391 634.756 -86.3025C704.927 -106.789 746.496 -107.932 765.572 -89.8968C778.756 -77.4375 780.394 -56.1893 770.437 -26.7493C721.666 117.555 618.169 215.591 539.933 272.426C435.636 348.198 331.478 384.56 268.788 393.336C268.546 393.374 268.292 393.387 268.051 393.387L268.064 393.374Z" fill="#F5A0F9"/>
</g>
</svg>
