<?xml version="1.0" encoding="utf-8"?>
<!-- Generator: Adobe Illustrator 26.3.1, SVG Export Plug-In . SVG Version: 6.00 Build 0)  -->
<svg version="1.1" xmlns="http://www.w3.org/2000/svg" xmlns:xlink="http://www.w3.org/1999/xlink" x="0px" y="0px"
	 viewBox="0 0 720 35" style="enable-background:new 0 0 720 35;" xml:space="preserve">
<style type="text/css">
	.st0{fill:#290350;}
	.st1{clip-path:url(#SVGID_00000045580754889850973440000017517876738455738531_);}
	.st2{fill:#F370FF;}
	.st3{fill:#B003D3;}
	.st4{fill:#F8AAFF;}
</style>
<g id="Layer_2">
	<rect y="12.1" class="st0" width="213.2" height="17.2"/>
	<rect x="307.5" y="12.3" class="st0" width="412.5" height="16.8"/>
	<polyline class="st0" points="212.2,12.1 216.7,7.6 231,3.1 243.8,3.1 261.3,5.5 273.5,10.3 285.8,10.6 307.1,10.1 308.5,12.3
		308.5,29.2 298,23.3 290.7,25.4 268.1,29.2 243.1,25.9 230.4,23.3 218.8,27.6 212.2,29.3 	"/>
</g>
<g id="Layer_1">
	<g>
		<defs>
			<rect id="SVGID_1_" width="720" height="35"/>
		</defs>
		<clipPath id="SVGID_00000029013868995671352350000002888795649773128635_">
			<use xlink:href="#SVGID_1_"  style="overflow:visible;"/>
		</clipPath>
		<g style="clip-path:url(#SVGID_00000029013868995671352350000002888795649773128635_);">
			<path class="st2" d="M284.5,12.9c4.6-0.4,9.2-0.6,13.9-0.6h563.2V6.7H298.3c-7.5,0-14.9,0.5-22.2,1.4c2.8,1.4,5.5,2.9,8.2,4.7
				C284.3,12.8,284.4,12.9,284.5,12.9z"/>
			<path class="st3" d="M170.5,17.8h-176v5.7h176c11.8,0,23.6-2.7,34.3-8c-3.1-0.9-6.3-1.6-9.5-2.1C187.4,16.3,179,17.8,170.5,17.8z
				"/>
			<path class="st3" d="M339,34.8h510.5v-5.7H339c-10.1,0-20-1.5-29.5-4.5c-4.1,0.4-8.2,0.9-12.2,1.5
				C310.4,31.9,324.5,34.8,339,34.8"/>
			<path class="st3" d="M284.5,12.9c-0.1,0-0.1-0.1-0.2-0.1c-2.6-1.7-5.4-3.3-8.2-4.7c-22.4-11.1-49-10.9-71.4,1.1
				c-0.2,0.1-0.4,0.2-0.5,0.3c2.7,0.7,5.4,1.5,8,2.4c17-7.6,36.2-8.2,53.5-2.1c3.2,1.1,6.4,2.5,9.5,4.1c2.1,1.1,4.1,2.3,6.1,3.6
				c2.4,1.6,4.8,3,7.3,4.4c3.2-0.6,6.4-1.1,9.6-1.5C293.4,18.3,288.8,15.8,284.5,12.9"/>
			<path class="st2" d="M265.7,9.8c-9.9,1.9-19.6,4.7-29.1,8.4c-1.5,0.6-3,1.1-4.5,1.7c-2.9,1-5.7,1.9-8.6,2.8
				c-15.1,4.4-30.8,6.7-46.7,6.7H-0.5V35h177.3c18.9,0,37.5-3.1,55.3-9.2c2.2-0.7,4.3-1.5,6.4-2.3c0.9-0.3,1.8-0.7,2.7-1
				c11-4,22.3-6.9,33.9-8.5C272.1,12.3,268.9,11,265.7,9.8z"/>
			<path class="st4" d="M334.7,17.8c-12.2,0-24.5,0.9-36.7,2.6c-3.2,0.5-6.4,1-9.6,1.5c-1.2,0.2-2.4,0.4-3.6,0.7l-3.2,0.6
				c-13.5,2.6-27.2,2.3-40.4-0.7c-0.9,0.3-1.8,0.7-2.7,1c-2.1,0.8-4.3,1.6-6.4,2.3c6.1,1.9,12.3,3.3,18.6,4.1
				c4.1,0.5,8.3,0.8,12.4,0.8c6.5,0,13-0.6,19.5-1.9l3.2-0.6c3.8-0.7,7.6-1.4,11.4-1.9c4.1-0.6,8.1-1.1,12.2-1.5
				c8.4-0.8,16.8-1.2,25.2-1.2H851v-5.7H334.7L334.7,17.8z"/>
			<path class="st4" d="M222.4,16c-3.4-1.5-6.8-2.9-10.2-4.1c-2.6-0.9-5.3-1.7-8-2.4c-8.1-2-16.5-3.1-25-3.1l-182.7,0v5.7l182.7,0
				c5.4,0,10.8,0.4,16.1,1.3c3.2,0.5,6.4,1.2,9.5,2.1c5.2,1.4,10.3,3.3,15.2,5.6c1.1,0.5,2.3,1,3.4,1.5c2.9-0.8,5.8-1.8,8.6-2.8
				C228.8,18.7,225.6,17.4,222.4,16z"/>
		</g>
	</g>
</g>
</svg>
