<?xml version="1.0" encoding="utf-8"?>
<!-- Generator: Adobe Illustrator 26.3.1, SVG Export Plug-In . SVG Version: 6.00 Build 0)  -->
<svg version="1.1" id="Layer_1" xmlns="http://www.w3.org/2000/svg" xmlns:xlink="http://www.w3.org/1999/xlink" x="0px" y="0px"
	 viewBox="0 0 1440 500" style="enable-background:new 0 0 1440 500;" xml:space="preserve">
<style type="text/css">
	.st0{clip-path:url(#SVGID_00000047043898034019181580000011934846628727037317_);}
	.st1{fill:#290350;}
	.st2{opacity:0.15;clip-path:url(#SVGID_00000024689106359065190170000000484960673280529854_);}
	.st3{fill:none;stroke:#F8AAFF;stroke-width:3.8192;stroke-linecap:round;stroke-linejoin:round;}
	.st4{fill:none;stroke:#F8AAFF;stroke-width:3.0553;stroke-linecap:round;stroke-linejoin:round;}
	.st5{display:none;fill:#FFFFFF;}
	.st6{display:none;fill:none;stroke:#F8AAFF;stroke-width:2;}
</style>
<g>
	<defs>
		<rect id="SVGID_1_" y="0" width="1440" height="500"/>
	</defs>
	<clipPath id="SVGID_00000092439982948613040530000002507167978359166129_">
		<use xlink:href="#SVGID_1_"  style="overflow:visible;"/>
	</clipPath>
	<g style="clip-path:url(#SVGID_00000092439982948613040530000002507167978359166129_);">
		<rect y="0" class="st1" width="1440" height="500"/>
		<g>
			<defs>
				<rect id="SVGID_00000137093198270288617310000000324732981417424319_" x="-12" y="65" width="1475.7" height="434.6"/>
			</defs>
			<clipPath id="SVGID_00000096045293500593942320000009054718911542856836_">
				<use xlink:href="#SVGID_00000137093198270288617310000000324732981417424319_"  style="overflow:visible;"/>
			</clipPath>
			<g style="opacity:0.15;clip-path:url(#SVGID_00000096045293500593942320000009054718911542856836_);">
				<path class="st3" d="M138.2,318.4c-2.6,2.6-10.3,10.3-13.8,13.8"/>
				<path class="st3" d="M177,493.4V363.7h-58.3v129.7"/>
				<path class="st3" d="M162.1,363.3v-33.7l-29.4-14l-14,14v33.5"/>
				<path class="st3" d="M144.5,321.5c-2.6,2.6-10.3,10.3-13.8,13.8"/>
				<path class="st3" d="M151.2,324.3c-2.6,2.6-10.3,10.3-13.8,13.8"/>
				<path class="st3" d="M157.4,327.5c-2.6,2.6-10.3,10.3-13.8,13.8"/>
				<path class="st3" d="M161.9,332.9c-3.4,3.4-9.2,9.2-12.2,12.2"/>
				<path class="st3" d="M162,342.6c-2.2,2.2-4.3,4.3-5.7,5.7"/>
				<path class="st3" d="M137.6,378.6h-7.4V395h7.4V378.6z"/>
				<path class="st3" d="M165.6,378.6h-7.4V395h7.4V378.6z"/>
				<path class="st3" d="M137.6,400.1h-7.4v16.4h7.4V400.1z"/>
				<path class="st3" d="M151.6,378.6h-7.4v37.9h7.4V378.6z"/>
				<path class="st3" d="M165.6,400.1h-7.4v16.4h7.4V400.1z"/>
				<path class="st3" d="M137.6,421.5h-7.4v24.1h7.4V421.5z"/>
				<path class="st3" d="M151.6,421.5h-7.4v24.1h7.4V421.5z"/>
				<path class="st3" d="M137.6,449.9h-7.4v24.3h7.4V449.9z"/>
				<path class="st3" d="M151.6,449.9h-7.4v24.3h7.4V449.9z"/>
				<path class="st3" d="M165.6,421.5h-7.4v52.7h7.4V421.5z"/>
				<path class="st3" d="M199.6,416.2V379L177,363.7v129.7"/>
				<path class="st3" d="M187.4,370.7V310h-25.2v53.7"/>
				<path class="st3" d="M198.3,378.1v-60.7l-10.9-7.4v60.7"/>
				<path class="st3" d="M118.7,330l43.4,21.1"/>
				<path class="st3" d="M118.7,341.4l43.4,22"/>
				<path class="st3" d="M120,353.1c0,0,10.7,5.2,21.4,10.4"/>
				<path class="st3" d="M369.8,493.8v-10.4l3.9-4.4l3.9,4.4v10.4"/>
				<path class="st3" d="M371.2,481.3v-10.6l2.5-2.8l2.5,2.8v10.6"/>
				<path class="st3" d="M387.2,443.1c0,0-5.6,1.9-13.5-8.9c-7.9,10.9-13.5,8.9-13.5,8.9"/>
				<path class="st3" d="M386.1,434.6c0,0-5.2,1.8-12.4-8.2c-7.2,10-12.4,8.2-12.4,8.2"/>
				<path class="st3" d="M385,426.1c0,0-4.8,1.6-11.4-7.5c-6.6,9.2-11.4,7.5-11.4,7.5"/>
				<path class="st3" d="M384,417.5c0,0-4.3,1.5-10.3-6.8c-6,8.3-10.3,6.8-10.3,6.8"/>
				<path class="st3" d="M382.9,409c0,0-3.9,1.3-9.2-6.1c-5.4,7.4-9.2,6.1-9.2,6.1"/>
				<path class="st3" d="M381.8,400.5c0,0-3.4,1.2-8.2-5.4c-4.8,6.6-8.2,5.4-8.2,5.4"/>
				<path class="st3" d="M380.8,392c0,0-3,1-7.1-4.7c-4.1,5.7-7.1,4.7-7.1,4.7"/>
				<path class="st3" d="M379.7,383.5c0,0-2.5,0.9-6-4c-3.5,4.9-6,4-6,4"/>
				<path class="st3" d="M373.7,379.5v88.4"/>
				<path class="st3" d="M694.8,404.5c0,0-5.6,1.9-13.5-8.9c-7.9,10.9-13.5,8.9-13.5,8.9"/>
				<path class="st3" d="M693.7,396c0,0-5.2,1.8-12.4-8.2c-7.2,10-12.4,8.2-12.4,8.2"/>
				<path class="st3" d="M692.6,387.5c0,0-4.8,1.6-11.4-7.5c-6.6,9.2-11.4,7.5-11.4,7.5"/>
				<path class="st3" d="M691.6,378.9c0,0-4.3,1.5-10.3-6.8c-6,8.3-10.3,6.8-10.3,6.8"/>
				<path class="st3" d="M690.5,370.4c0,0-3.9,1.3-9.2-6.1c-5.4,7.4-9.2,6.1-9.2,6.1"/>
				<path class="st3" d="M689.4,361.9c0,0-3.4,1.2-8.2-5.4c-4.8,6.6-8.2,5.4-8.2,5.4"/>
				<path class="st3" d="M688.3,353.4c0,0-3,1-7.1-4.7c-4.1,5.7-7.1,4.7-7.1,4.7"/>
				<path class="st3" d="M687.3,344.9c0,0-2.5,0.9-6-4c-3.5,4.9-6,4-6,4"/>
				<path class="st3" d="M681.2,340.9v73"/>
				<path class="st3" d="M422.1,494.1v-8.3c0-1.6,0.6-3.2,1.7-4.4l2.2-2.5l2.2,2.5c1.1,1.2,1.7,2.8,1.7,4.4v8.3"/>
				<path class="st3" d="M426,391.1V479"/>
				<path class="st3" d="M399.4,395.1h51.9"/>
				<path class="st3" d="M463,401.4h-11c-3.5,0-6.3-2.8-6.3-6.3h12.4c2.7,0,4.9,2.2,4.9,4.9L463,401.4L463,401.4z"/>
				<path class="st3" d="M389.9,401.4h11c3.5,0,6.3-2.8,6.3-6.3h-12.4c-2.7,0-4.9,2.2-4.9,4.9L389.9,401.4L389.9,401.4z"/>
				<path class="st3" d="M422.7,486.1h6.2"/>
				<path class="st3" d="M424.5,385.1l1.5-1.5l1.5,1.5c1.3,1.3,1.3,3.3,0,4.6l-1.5,1.5l-1.5-1.5
					C423.2,388.4,423.2,386.3,424.5,385.1z"/>
				<path class="st3" d="M494.4,472.5h-46.7v7.2h46.7V472.5z"/>
				<path class="st3" d="M494.4,483.8h-46.7v2.9h46.7V483.8z"/>
				<path class="st3" d="M488,494.1v-23.8"/>
				<path class="st3" d="M454.3,494.1v-23.8"/>
				<path class="st3" d="M447.7,490.8h46"/>
				<path class="st3" d="M592.6,357.1c0,0,13,24.3,13,57.4c0,24.6-4.4,44.5-13,44.5"/>
				<path class="st3" d="M592.6,357.1c0,0-12.9,24.3-12.9,57.4c0,24.6,4.4,44.5,12.9,44.5"/>
				<path class="st3" d="M592.6,383.7v93.8"/>
				<path class="st3" d="M592.6,413l-8.9-12.6"/>
				<path class="st3" d="M592.6,405.4c0,0,2.1-3,4.3-6"/>
				<path class="st3" d="M592.6,421c0,0,3.3-4.6,5.9-8.2"/>
				<path class="st3" d="M600.3,410.1c0.7-1,1.2-1.7,1.2-1.7"/>
				<path class="st3" d="M592.6,436.5c0,0,1.1-1.5,2.4-3.4"/>
				<path class="st3" d="M596.7,430.8c2.4-3.3,4.9-6.8,4.9-6.8"/>
				<path class="st3" d="M592.6,452.1c0,0,2-2.8,4-5.7"/>
				<path class="st3" d="M592.6,428c0,0-2.6-3.7-5-7.1"/>
				<path class="st3" d="M585.7,418.4c-1.2-1.7-2-2.9-2-2.9"/>
				<path class="st3" d="M592.6,443.1l-8.9-12.6"/>
				<path class="st3" d="M607.7,494.1c0.7-1,1.1-2.2,1.1-3.5c0-3.5-2.9-6.4-6.4-6.4c0,0-0.1,0-0.1,0c0.1-0.4,0.1-0.8,0.1-1.3
					c0-3.5-2.9-6.4-6.4-6.4c-1.8,0-3.5,0.8-4.6,2c-0.9-0.5-1.9-0.7-3-0.7c-2.7,0-5.1,1.7-6,4.1c-0.1,0-0.3,0-0.4,0
					c-3.5,0-6.4,2.9-6.4,6.4c0,2.4,1.7,4.7,3.6,5.8"/>
				<path class="st3" d="M602.1,479.6c0.1,0,0.2,0,0.3,0c1.5,0,2.9,0.6,3.8,1.7c0.7-0.4,1.6-0.6,2.5-0.6c2.3,0,4.2,1.4,4.9,3.4
					c0.1,0,0.2,0,0.3,0c2.9,0,5.3,2.4,5.3,5.3c0,2-1.4,3.9-3,4.8"/>
				<path class="st3" d="M59.6,372.9c0,0,12.9,24.3,12.9,57.4c0,24.6-4.4,44.5-12.9,44.5"/>
				<path class="st3" d="M59.6,372.9c0,0-12.9,24.3-12.9,57.4c0,24.6,4.4,44.5,12.9,44.5"/>
				<path class="st3" d="M59.6,399.5v93.8"/>
				<path class="st3" d="M59.6,428.8l-8.9-12.6"/>
				<path class="st3" d="M59.6,421.2c0,0,2.1-3,4.3-6"/>
				<path class="st3" d="M59.6,436.8c0,0,3.3-4.6,5.9-8.2"/>
				<path class="st3" d="M67.3,426c0.7-1,1.2-1.7,1.2-1.7"/>
				<path class="st3" d="M59.6,452.4c0,0,1.1-1.5,2.4-3.4"/>
				<path class="st3" d="M63.6,446.7c2.4-3.3,4.9-6.8,4.9-6.8"/>
				<path class="st3" d="M59.6,468c0,0,2-2.8,4-5.7"/>
				<path class="st3" d="M59.6,443.9c0,0-2.6-3.7-5-7.1"/>
				<path class="st3" d="M52.7,434.2c-1.2-1.7-2-2.9-2-2.9"/>
				<path class="st3" d="M59.6,459l-8.9-12.6"/>
				<path class="st4" d="M441.5,414.4c0,0,7.2,13.6,7.2,32c0,13.7-2.5,24.8-7.2,24.8"/>
				<path class="st4" d="M441.5,414.4c0,0-7.2,13.6-7.2,32c0,13.7,2.5,24.8,7.2,24.8"/>
				<path class="st4" d="M441.5,429.2v64.9"/>
				<path class="st4" d="M441.5,445.6l-5-7"/>
				<path class="st4" d="M441.5,441.3c0,0,1.2-1.7,2.4-3.4"/>
				<path class="st4" d="M441.5,450c0,0,1.8-2.6,3.3-4.6"/>
				<path class="st4" d="M441.5,458.7c0,0,0.6-0.8,1.4-1.9"/>
				<path class="st4" d="M443.8,455.5c1.3-1.9,2.7-3.8,2.7-3.8"/>
				<path class="st4" d="M441.5,467.4c0,0,1.1-1.5,2.2-3.2"/>
				<path class="st4" d="M441.5,454c0,0-1.5-2.1-2.8-4"/>
				<path class="st4" d="M441.5,462.4l-5-7"/>
				<path class="st3" d="M328.8,369.5c0,0,9.5,17.8,9.5,42c0,18-3.2,32.6-9.5,32.6"/>
				<path class="st3" d="M328.8,369.5c0,0-9.5,17.8-9.5,42c0,18,3.2,32.6,9.5,32.6"/>
				<path class="st3" d="M328.8,389v85.2"/>
				<path class="st3" d="M328.8,410.4l-6.5-9.2"/>
				<path class="st3" d="M328.8,404.9c0,0,1.5-2.2,3.1-4.4"/>
				<path class="st3" d="M328.8,416.3c0,0,2.4-3.4,4.3-6"/>
				<path class="st3" d="M334.4,408.3c0.5-0.8,0.9-1.3,0.9-1.3"/>
				<path class="st3" d="M328.8,427.7c0,0,0.8-1.1,1.8-2.5"/>
				<path class="st3" d="M331.8,423.5c1.7-2.4,3.6-5,3.6-5"/>
				<path class="st3" d="M328.8,439.1c0,0,1.4-2,3-4.2"/>
				<path class="st3" d="M328.8,421.5c0,0-1.9-2.7-3.7-5.2"/>
				<path class="st3" d="M323.7,414.4c-0.9-1.2-1.5-2.1-1.5-2.1"/>
				<path class="st3" d="M328.8,432.5l-6.5-9.2"/>
				<path class="st3" d="M98.7,469.9l-4.4-7.3c3.9-0.3,6.3-4.6,4.2-8.1l-5.8-9.7h0.1c3.5,0,5.7-3.8,3.8-6.8l-4.6-7.7
					c2.5-0.4,3.9-3.2,2.5-5.4l-5-8.3c-1.4-2.3-4.7-2.3-6.1,0l-5,8.3c-1.3,2.2,0.1,5,2.5,5.4l-4.6,7.7c-1.8,3,0.3,6.8,3.8,6.8h0.1
					l-5.8,9.7c-2.1,3.5,0.3,7.8,4.2,8.1l-4.4,7.3c-2.2,3.6,0.4,8.3,4.7,8.3h15.4C98.3,478.2,100.9,473.6,98.7,469.9L98.7,469.9z"/>
				<path class="st3" d="M84.6,494.2v-16"/>
				<path class="st3" d="M88.2,478.2v16"/>
				<path class="st3" d="M286.8,466.7v27.2"/>
				<path class="st3" d="M286.8,476.1l6.3-6.1"/>
				<path class="st3" d="M286.8,471.2l-7.1-6.5"/>
				<path class="st3" d="M304.8,465.7c0-3.7-3-6.8-6.8-6.8c-1.9,0-3.6,0.8-4.8,2l-0.1-0.1c0.2-1.1,0-2.2-0.5-3.3
					c-1.4-2.9-4.9-4.2-7.8-2.9c-2.3,1-3.5,3.4-3.4,5.7c-1.6-1-3.7-1.2-5.5-0.3c-2.9,1.4-4.2,4.9-2.9,7.8c0.1,0.3,0.3,0.6,0.5,0.8
					c0,0-0.1,0-0.1,0c-2.9,1.4-4.2,4.9-2.9,7.8s4.9,4.2,7.8,2.9c0.5-0.2,1-0.6,1.4-0.9c1.7,1.2,4,1.5,6,0.6c0.2-0.1,0.4-0.2,0.6-0.3
					c1.7,1.3,4,1.6,6,0.6c0.3-0.1,0.6-0.3,0.8-0.5c1.4,0.4,2.9,0.4,4.3-0.3c2.5-1.1,3.8-3.8,3.3-6.4l-0.2-0.4
					C303.1,471,304.8,468.6,304.8,465.7L304.8,465.7z"/>
				<path class="st3" d="M342.1,493.6v-7.1h19.9v7.1"/>
				<path class="st3" d="M345.3,457.1h7.7c3.1,0,5.7,2.6,5.7,5.7v23.7h-13.4L345.3,457.1L345.3,457.1z"/>
				<path class="st3" d="M354.7,472.8h-5.4v-4.4V464h5.4V472.8z"/>
				<path class="st3" d="M354.7,468.4h-5.4"/>
				<path class="st3" d="M346.3,446.9c-6.5,0-11.7,5.2-11.7,11.7"/>
				<path class="st3" d="M337.5,458.6c0-4.8,3.9-8.8,8.8-8.8"/>
				<path class="st3" d="M346.3,452.7c-3.2,0-5.8,2.6-5.8,5.8"/>
				<path class="st3" d="M414.3,493.8c0.7-0.7,1-1.6,0.9-2.6c-0.2-2-2.3-3.5-4.7-3.3c0,0-0.1,0-0.1,0c0-0.2,0-0.5,0-0.7
					c-0.2-2-2.3-3.5-4.7-3.3c-1.2,0.1-2.3,0.6-3,1.4c-0.6-0.2-1.3-0.3-2.1-0.3c-1.8,0.1-3.3,1.2-3.8,2.7c-0.1,0-0.2,0-0.3,0
					c-2.4,0.2-4.1,2-3.9,4c0.1,0.9,0.5,1.6,1.2,2.2"/>
				<path class="st3" d="M404,484.3v-35.9"/>
				<path class="st3" d="M407.2,444.8c0,1.8-1.5,3.2-3.2,3.2c-1.8,0-3.2-1.5-3.2-3.2c0-1.2,1.5-4.7,2.5-6.8c0.3-0.7,1.2-0.6,1.5,0
					C405.7,440,407.2,443.5,407.2,444.8L407.2,444.8z"/>
				<path class="st3" d="M395.3,449.3c1.3,0.6,1.8,2.1,1.2,3.3c-0.6,1.3-2.1,1.8-3.3,1.2c-0.9-0.4-2.8-2.6-4-4
					c-0.4-0.4-0.1-1.1,0.5-1.1C391.5,448.8,394.4,448.8,395.3,449.3L395.3,449.3z"/>
				<path class="st3" d="M396.3,452.7c0,0,5.4,2.5,7.3,3.5"/>
				<path class="st3" d="M395.3,458.6c1.3,0.6,1.8,2.1,1.2,3.3c-0.6,1.3-2.1,1.8-3.3,1.2c-0.9-0.4-2.8-2.6-4-4
					c-0.4-0.4-0.1-1.1,0.5-1.1C391.5,458.1,394.4,458.2,395.3,458.6L395.3,458.6z"/>
				<path class="st3" d="M396.6,462.2c1.1,0.5,6,2.8,7.4,3.5"/>
				<path class="st3" d="M395.3,467.9c1.3,0.6,1.8,2.1,1.2,3.3c-0.6,1.3-2.1,1.8-3.3,1.2c-0.9-0.4-2.8-2.6-4-4
					c-0.4-0.4-0.1-1.1,0.5-1.1C391.5,467.4,394.4,467.5,395.3,467.9L395.3,467.9z"/>
				<path class="st3" d="M396.6,471.5c1.2,0.6,5.9,2.8,7.3,3.5"/>
				<path class="st3" d="M413,449.3c-1.3,0.6-1.8,2.1-1.2,3.3c0.6,1.3,2.1,1.8,3.3,1.2c0.9-0.4,2.8-2.6,4-4c0.4-0.4,0.1-1.1-0.5-1.1
					C416.9,448.8,413.9,448.8,413,449.3L413,449.3z"/>
				<path class="st3" d="M412,452.7c0,0-6.8,3.2-7.9,3.7"/>
				<path class="st3" d="M413,458.6c-1.3,0.6-1.8,2.1-1.2,3.3c0.6,1.3,2.1,1.8,3.3,1.2c0.9-0.4,2.8-2.6,4-4c0.4-0.4,0.1-1.1-0.5-1.1
					C416.9,458.1,413.9,458.2,413,458.6L413,458.6z"/>
				<path class="st3" d="M411.9,462.1c-0.8,0.4-8,3.8-8,3.8"/>
				<path class="st3" d="M413,467.9c-1.3,0.6-1.8,2.1-1.2,3.3c0.6,1.3,2.1,1.8,3.3,1.2c0.9-0.4,2.8-2.6,4-4c0.4-0.4,0.1-1.1-0.5-1.1
					C416.9,467.4,413.9,467.5,413,467.9L413,467.9z"/>
				<path class="st3" d="M411.6,471.5c-1.5,0.7-7.7,3.6-7.7,3.6"/>
				<path class="st3" d="M655,389.9c6.3,0,11.3-5.1,11.3-11.3c0-6.3-5.1-11.3-11.3-11.3c-6.3,0-11.3,5.1-11.3,11.3
					C643.7,384.8,648.8,389.9,655,389.9z"/>
				<path class="st3" d="M635.4,367.3c8.4,0,15.2-6.8,15.2-15.2c0-8.4-6.8-15.2-15.2-15.2c-8.4,0-15.2,6.8-15.2,15.2
					C620.3,360.5,627.1,367.3,635.4,367.3z"/>
				<path class="st3" d="M616.7,376.5c4.1-1,6.6-5.1,5.7-9.1c-1-4.1-5.1-6.6-9.1-5.7c-4.1,1-6.6,5.1-5.7,9.1
					C608.5,375,612.6,377.5,616.7,376.5z"/>
				<path class="st3" d="M635.4,352.1v73.6"/>
				<path class="st3" d="M624.6,407.1c4.1-1,6.6-5.1,5.7-9.1c-1-4.1-5.1-6.6-9.1-5.7c-4.1,1-6.6,5.1-5.7,9.1
					C616.4,405.5,620.5,408,624.6,407.1z"/>
				<path class="st3" d="M635.4,400.4c0,0,5.3-16.6,20.2-21.8"/>
				<path class="st3" d="M635.5,389.9c0,0-5.3-16.6-20.2-21.8"/>
				<path class="st3" d="M635.5,416.3c0,0-3.1-9.8-11.4-16.8"/>
				<path class="st3" d="M226,386.3c0.9-5.6-2.9-10.9-8.5-11.8c-5.6-0.9-10.9,2.9-11.8,8.5c-0.9,5.6,2.9,10.9,8.5,11.8
					C219.8,395.7,225,391.9,226,386.3z"/>
				<path class="st3" d="M233.6,368.9c7.6,0,13.8-6.2,13.8-13.8s-6.2-13.8-13.8-13.8c-7.6,0-13.8,6.2-13.8,13.8
					S226,368.9,233.6,368.9z"/>
				<path class="st3" d="M233.6,355.1v53.3"/>
				<path class="st3" d="M251.8,379.3c0.6-3.8-1.9-7.3-5.7-7.9c-3.8-0.6-7.3,1.9-7.9,5.7c-0.6,3.8,1.9,7.3,5.7,7.9
					C247.7,385.6,251.2,383.1,251.8,379.3z"/>
				<path class="st3" d="M233.6,404.4c0,0-4.8-15-18.3-19.8"/>
				<path class="st3" d="M233.6,393.3c0,0,2.8-8.9,10.3-15.2"/>
				<path class="st3" d="M-15.1,494.3h741.7"/>
				<path class="st3" d="M227.5,493.4v-59.1"/>
				<path class="st3" d="M309.7,441.2v52.2"/>
				<path class="st3" d="M184.5,493.4v-52.5"/>
				<path class="st3" d="M184.9,433.8c2.8-3.3,21.1-25.1,21.1-25.1l21.5,25.5v59.1"/>
				<path class="st3" d="M191.2,434.2c5.5-6.5,15.6-18.5,17.6-20.8"/>
				<path class="st3" d="M247,451.2h-6.6v10.5h6.6V451.2z"/>
				<path class="st3" d="M258.4,451.2h-6.6v24.5h6.6V451.2z"/>
				<path class="st3" d="M247,465.2h-6.6v10.5h6.6V465.2z"/>
				<path class="st3" d="M199.3,493.6v-31.9h15.3v31.9"/>
				<path class="st3" d="M276.6,408.7H206l21.5,25.5h82.2"/>
				<path class="st3" d="M222.1,408.7l21.5,25.5"/>
				<path class="st3" d="M238.6,408.7l21.5,25.5"/>
				<path class="st3" d="M255.2,408.7l21.5,25.5"/>
				<path class="st3" d="M227.5,434.2h-43"/>
				<path class="st3" d="M214.6,445h-15.3v10.8h15.3v-4.6V445z"/>
				<path class="st3" d="M199.3,450.6h15.3"/>
				<path class="st3" d="M309.7,395.6h-33v38.6h33V395.6z"/>
				<path class="st3" d="M313,389.5h-39.5v6.2H313V389.5z"/>
				<path class="st3" d="M313,434.4H180.5v6.2H313V434.4z"/>
				<path class="st3" d="M276.7,400.6h33"/>
				<path class="st3" d="M276.7,406h33"/>
				<path class="st3" d="M276.7,411.4h33"/>
				<path class="st3" d="M276.7,416.9h33"/>
				<path class="st3" d="M276.7,422.3h33"/>
				<path class="st3" d="M276.7,427.7h33"/>
				<path class="st3" d="M19.7,469.3h22.1c0,6.1-4.9,11-11,11C24.6,480.3,19.7,475.4,19.7,469.3L19.7,469.3z"/>
				<path class="st3" d="M36.9,494c-1-2.4-3.4-4-6.2-4c-2.7,0-5.1,1.6-6.1,4"/>
				<path class="st3" d="M28.5,490v-9.7"/>
				<path class="st3" d="M32.9,490v-9.7"/>
				<path class="st3" d="M32.6,468.9c1.4-2.3,4.3-5.7,9.5-5.7"/>
				<path class="st3" d="M31.6,466.3c0,0,3.5-9.6,13-9.6"/>
				<path class="st3" d="M30.4,463.6c0,0,1.2-10.1,10.5-12.3"/>
				<path class="st3" d="M28.2,469c-1.4-2.3-4.3-5.8-9.5-5.8"/>
				<path class="st3" d="M29.1,466.3c0,0-3.5-9.6-13-9.6"/>
				<path class="st3" d="M30.4,463.6c0,0-1.2-10.1-10.5-12.3"/>
				<path class="st3" d="M499.5,469.3h22.1c0,6.1-4.9,11-11,11C504.4,480.3,499.5,475.4,499.5,469.3L499.5,469.3z"/>
				<path class="st3" d="M516.7,494c-1-2.4-3.4-4-6.2-4c-2.7,0-5.1,1.6-6.1,4"/>
				<path class="st3" d="M508.3,490v-9.7"/>
				<path class="st3" d="M512.7,490v-9.7"/>
				<path class="st3" d="M512.4,468.9c1.4-2.3,4.3-5.7,9.5-5.7"/>
				<path class="st3" d="M511.4,466.3c0,0,3.5-9.6,13-9.6"/>
				<path class="st3" d="M510.2,463.6c0,0,1.2-10.1,10.5-12.3"/>
				<path class="st3" d="M508,469c-1.4-2.3-4.3-5.8-9.5-5.8"/>
				<path class="st3" d="M508.9,466.3c0,0-3.5-9.6-13-9.6"/>
				<path class="st3" d="M510.2,463.6c0,0-1.2-10.1-10.5-12.3"/>
				<path class="st3" d="M333.1,493.4c5.1-2.1,7.5-8,5.4-13.1s-8-7.5-13.1-5.4c-5.1,2.1-7.5,8-5.4,13.1
					C322.2,493.1,328,495.5,333.1,493.4z"/>
				<path class="st3" d="M111.6,493.4c5.1-2.1,7.6-7.9,5.5-13c-2.1-5.1-7.9-7.6-13-5.5c-5.1,2.1-7.6,7.9-5.5,13
					C100.7,493,106.5,495.5,111.6,493.4z"/>
				<path class="st3" d="M577.8,454.7c0-5.7-4.6-10.3-10.3-10.3c-0.1,0-0.1,0-0.2,0c0.1-0.7,0.2-1.4,0.2-2.1
					c0-5.7-4.6-10.3-10.3-10.3c-3,0-5.6,1.2-7.5,3.2c-1.4-0.8-3.1-1.2-4.8-1.2c-4.4,0-8.1,2.8-9.6,6.6c-0.2,0-0.5,0-0.7,0
					c-5.7,0-10.3,4.6-10.3,10.3c0,5.2,3.9,9.5,8.9,10.2c1.7,3.4,5.2,5.7,9.2,5.7c0.8,0,1.7-0.1,2.4-0.3c1.7,1.2,3.7,1.9,5.9,1.9
					c2.4,0,4.6-0.8,6.3-2.2c1.7,1.3,3.9,2.2,6.3,2.2c3.6,0,6.7-1.8,8.5-4.5C575.3,462.3,577.8,458.8,577.8,454.7L577.8,454.7z"/>
				<path class="st3" d="M551,443.1v50.5"/>
				<path class="st3" d="M551,459c0,0,4.2-5.7,11.9-7.2"/>
				<path class="st3" d="M551,453.4c0,0-3.6-6.8-9.3-7.6"/>
				<path class="st3" d="M551,484.1c0,0-4.2-5.7-11.9-7.2"/>
				<path class="st3" d="M551,480c0,0,1.5-2,4.3-4"/>
				<path class="st3" d="M526.6,475c0-2.4,2-4.4,4.4-4.4c0.5,0,1.1,0.1,1.5,0.3c0.5-0.3,1.1-0.5,1.7-0.5c1.7,0,3.1,1.3,3.3,2.9
					c1,0.6,1.6,1.6,1.6,2.8c0,1.6-1.2,3-2.7,3.2c0,0,0,0,0,0c0,1.8-1.5,3.3-3.3,3.3s-3.3-1.5-3.3-3.3c0-0.1,0-0.1,0-0.2
					C527.9,478.7,526.6,477,526.6,475L526.6,475z"/>
				<path class="st3" d="M560.2,471.8c-0.1,0-0.2,0-0.3,0c-0.5-1-1.6-1.8-2.8-1.8c-1.7,0-3.1,1.4-3.1,3.1c0,1.7,1.4,3.1,3.1,3.1
					c0.1,0,0.2,0,0.3,0c0.5,1,1.6,1.8,2.8,1.8c1.7,0,3.1-1.4,3.1-3.1C563.3,473.2,561.9,471.8,560.2,471.8z"/>
				<path class="st3" d="M515.5,308.9h18.9"/>
				<path class="st3" d="M488.9,193.2c5.1-5.1,5.1-13.3,0-18.3c-5.1-5.1-13.3-5.1-18.3,0c-5.1,5.1-5.1,13.3,0,18.3
					C475.7,198.2,483.9,198.2,488.9,193.2z"/>
				<path class="st3" d="M450.2,184h16.1"/>
				<path class="st3" d="M493.7,184h15.7"/>
				<path class="st3" d="M479.8,154.4v16.3"/>
				<path class="st3" d="M479.8,198.4v15.2"/>
				<path class="st3" d="M458.8,163.1c0,0,4.7,4.7,11,11"/>
				<path class="st3" d="M489.9,194.1l10.9,10.9"/>
				<path class="st3" d="M500.7,163.1c0,0-4.8,4.8-11.2,11.2"/>
				<path class="st3" d="M469.4,194.4c-6,6-10.5,10.5-10.5,10.5"/>
				<path class="st3" d="M74,348.1c1-1.8,1.5-3.9,1.5-6.2c-0.2-6.2-5.2-11.4-11.5-11.7c-5.3-0.3-9.9,2.8-11.8,7.3
					c-1.6-1.5-3.8-2.5-6.3-2.5c-3.6,0-6.7,2.1-8.2,5.2c-1.4-0.8-3.1-1.3-4.9-1.1c-3.4,0.4-6.2,3-6.7,6.4c0,0,0,0.1,0,0.1
					c-0.4,2.4,1.5,4.6,4,4.6h40.5C72,350.1,73.3,349.4,74,348.1L74,348.1z"/>
				<path class="st3" d="M517.7,361c0-0.6,0-1.2-0.1-1.8c-0.7-7.7-6.9-13.8-14.6-14.6c-6.6-0.6-12.4,2.7-15.5,7.9
					c-2-2.3-4.9-3.8-8.3-3.8c-6,0-10.8,4.8-10.8,10.8c0,1.4,0.3,2.8,0.8,4c-1.6-1.5-3.7-2.4-6-2.4c-4.8,0-8.7,3.9-8.7,8.7
					c0,0.1,0,0.2,0,0.3c-0.8-0.2-1.7-0.3-2.6-0.3c-0.2,0-0.3,0-0.5,0c-6.2,0.3-5.9,9.7,0.4,9.7h65.1c5.1,0,9.3-4.2,9.3-9.3
					C526.2,365.4,522.5,361.4,517.7,361L517.7,361z"/>
				<path class="st3" d="M426,414.2c0,0,2.2-15.9,11.7-19.1"/>
				<path class="st3" d="M426,414.2c0,0-2.2-15.9-11.7-19.1"/>
				<path class="st3" d="M674.7,447.3l32-33.4c0,0,14,27.1,16.7,32.5"/>
				<path class="st3" d="M708.2,417.5c-4.6,4.8-21.5,22.7-28.2,29.7h-5.3"/>
				<path class="st3" d="M704.4,422.1c4.5,8.7,11.1,21.5,12.6,24.5h6.4"/>
				<path class="st3" d="M674.7,493.6v-43.1"/>
				<path class="st3" d="M674.7,447.3l-60.4,0.1v36.7"/>
				<path class="st3" d="M706.6,413.9h-59.2l-33.1,33.4"/>
				<path class="st3" d="M658.7,413.9l-33.4,33.4"/>
				<path class="st3" d="M670,413.9l-33.4,33.4"/>
				<path class="st3" d="M681.2,413.9l-33.4,33.4"/>
				<path class="st3" d="M695,413.9l-33.4,33.4"/>
				<path class="st3" d="M695,472.8h8.3v-15.3H695V472.8z"/>
				<path class="st3" d="M686.7,472.8h8.3v-15.3h-8.3v7.6V472.8z"/>
				<path class="st3" d="M657.5,493.6V464h-14.3v29.6"/>
				<path class="st3" d="M631.8,464h-13.5"/>
				<path class="st3" d="M636.5,468.7H623"/>
				<path class="st3" d="M631.8,454.7h-13.5"/>
				<path class="st3" d="M636.5,459.4H623"/>
				<path class="st3" d="M631.8,473.4h-13.5"/>
				<path class="st3" d="M636.5,478.2H623"/>
				<path class="st3" d="M631.8,482.9h-13.5"/>
				<path class="st3" d="M636.5,487.7H623"/>
				<path class="st3" d="M695,465.2h-8.3"/>
				<path class="st3" d="M699.8,413.9v-16.7"/>
				<path class="st3" d="M699.8,397.2H717v36.6"/>
				<path class="st3" d="M717,446.6v47"/>
				<path class="st3" d="M696.7,397.1h23v-5.5h-23V397.1z"/>
				<path class="st3" d="M614.3,450.5h66v-3.3"/>
				<path class="st3" d="M464.8,336.8c0,0-4.7-7-11.6,1.2c0,0,0.6-8.4-8-6.9"/>
				<path class="st3" d="M288.6,372.9c0,0-4.7-7-11.6,1.2c0,0,0.6-8.4-8-6.9"/>
				<path class="st3" d="M419.6,304.3c0,0-4.7-7-11.6,1.2c0,0,0.6-8.4-8-6.9"/>
				<path class="st3" d="M565.1,390.1c0,0-4.7-7-11.6,1.2c0,0,0.6-8.4-8-6.9"/>
				<path class="st3" d="M548.9,327.2c0,0-4.7-7-11.6,1.2c0,0,0.6-8.4-8-6.9"/>
				<path class="st3" d="M1189,494.1v-10.4l-3.9-4.4l-3.9,4.4v10.4"/>
				<path class="st3" d="M1187.6,481.7v-10.6l-2.5-2.8l-2.5,2.8v10.6"/>
				<path class="st3" d="M1171.6,443.4c0,0,5.7,1.9,13.5-8.9c7.9,10.9,13.5,8.9,13.5,8.9"/>
				<path class="st3" d="M1172.7,434.9c0,0,5.2,1.8,12.4-8.2c7.2,10,12.4,8.2,12.4,8.2"/>
				<path class="st3" d="M1173.7,426.4c0,0,4.8,1.6,11.4-7.5c6.6,9.2,11.4,7.5,11.4,7.5"/>
				<path class="st3" d="M1174.8,417.9c0,0,4.3,1.5,10.3-6.8c6,8.3,10.3,6.8,10.3,6.8"/>
				<path class="st3" d="M1175.9,409.4c0,0,3.9,1.3,9.2-6.1c5.4,7.4,9.2,6.1,9.2,6.1"/>
				<path class="st3" d="M1176.9,400.9c0,0,3.4,1.2,8.2-5.4c4.8,6.6,8.2,5.4,8.2,5.4"/>
				<path class="st3" d="M1178,392.4c0,0,3,1,7.1-4.7c4.1,5.7,7.1,4.7,7.1,4.7"/>
				<path class="st3" d="M1179.1,383.9c0,0,2.5,0.9,6-4c3.5,4.9,6,4,6,4"/>
				<path class="st3" d="M1185.1,379.9v88.4"/>
				<path class="st3" d="M833.7,385.5c0,0,5.6,1.9,13.5-8.9c7.9,10.9,13.5,8.9,13.5,8.9"/>
				<path class="st3" d="M834.8,377c0,0,5.2,1.8,12.4-8.2c7.2,10,12.4,8.2,12.4,8.2"/>
				<path class="st3" d="M835.8,368.5c0,0,4.8,1.6,11.4-7.5c6.6,9.2,11.4,7.5,11.4,7.5"/>
				<path class="st3" d="M836.9,360c0,0,4.3,1.5,10.3-6.8c6,8.3,10.3,6.8,10.3,6.8"/>
				<path class="st3" d="M838,351.5c0,0,3.9,1.3,9.2-6.1c5.4,7.4,9.2,6.1,9.2,6.1"/>
				<path class="st3" d="M839.1,343c0,0,3.4,1.2,8.2-5.4c4.8,6.6,8.2,5.4,8.2,5.4"/>
				<path class="st3" d="M840.1,334.5c0,0,3,1,7.1-4.7c4.1,5.7,7.1,4.7,7.1,4.7"/>
				<path class="st3" d="M841.2,326c0,0,2.5,0.9,6-4c3.5,4.9,6,4,6,4"/>
				<path class="st3" d="M847.2,322v87.3"/>
				<path class="st3" d="M847.2,430.2v62.3"/>
				<path class="st3" d="M926.2,479.1h46.7V472h-46.7V479.1z"/>
				<path class="st3" d="M926.2,486.1h46.7v-2.9h-46.7V486.1z"/>
				<path class="st3" d="M932.6,493.6v-23.8"/>
				<path class="st3" d="M966.4,493.6v-23.8"/>
				<path class="st3" d="M972.9,490.3h-46"/>
				<path class="st4" d="M1112.5,365.4c0,0-7.2,13.6-7.2,32c0,13.7,2.5,24.8,7.2,24.8"/>
				<path class="st4" d="M1112.5,365.4c0,0,7.2,13.6,7.2,32c0,13.7-2.5,24.8-7.2,24.8"/>
				<path class="st4" d="M1112.5,380.2v50.3"/>
				<path class="st4" d="M1112.5,396.5l5-7"/>
				<path class="st4" d="M1112.5,392.3c0,0-1.2-1.7-2.4-3.4"/>
				<path class="st4" d="M1112.5,401c0,0-1.8-2.6-3.3-4.6"/>
				<path class="st4" d="M1112.5,409.7c0,0-0.6-0.8-1.4-1.9"/>
				<path class="st4" d="M1110.2,406.5c-1.3-1.9-2.7-3.8-2.7-3.8"/>
				<path class="st4" d="M1112.5,418.4c0,0-1.1-1.5-2.2-3.2"/>
				<path class="st4" d="M1112.5,405c0,0,1.5-2.1,2.8-4"/>
				<path class="st4" d="M1112.5,413.4l5-7"/>
				<path class="st4" d="M1088.5,335.4c0,0-9.9,18.5-9.9,43.8c0,18.7,3.4,33.9,9.9,33.9"/>
				<path class="st4" d="M1088.5,335.4c0,0,9.9,18.5,9.9,43.8c0,18.7-3.4,33.9-9.9,33.9"/>
				<path class="st4" d="M1088.5,355.7v75.1"/>
				<path class="st4" d="M1088.5,378l6.8-9.6"/>
				<path class="st4" d="M1088.5,372.2c0,0-1.6-2.3-3.3-4.6"/>
				<path class="st4" d="M1088.5,384.1c0,0-2.5-3.5-4.5-6.3"/>
				<path class="st4" d="M1088.5,396c0,0-0.8-1.1-1.9-2.6"/>
				<path class="st4" d="M1085.4,391.6c-1.8-2.5-3.7-5.2-3.7-5.2"/>
				<path class="st4" d="M1088.5,407.9c0,0-1.5-2.1-3.1-4.3"/>
				<path class="st4" d="M1088.5,389.5c0,0,2-2.8,3.8-5.4"/>
				<path class="st4" d="M1088.5,401l6.8-9.6"/>
				<path class="st3" d="M735.3,391.4c0,0-9.9,18.5-9.9,43.8c0,18.7,3.4,33.9,9.9,33.9"/>
				<path class="st3" d="M735.3,391.4c0,0,9.9,18.5,9.9,43.8c0,18.7-3.4,33.9-9.9,33.9"/>
				<path class="st3" d="M735.3,411.7v82"/>
				<path class="st3" d="M735.3,434l6.8-9.6"/>
				<path class="st3" d="M735.3,428.2c0,0-1.6-2.3-3.3-4.6"/>
				<path class="st3" d="M735.3,440.1c0,0-2.5-3.5-4.5-6.3"/>
				<path class="st3" d="M735.3,452c0,0-0.8-1.1-1.9-2.6"/>
				<path class="st3" d="M732.2,447.6c-1.8-2.5-3.7-5.2-3.7-5.2"/>
				<path class="st3" d="M735.3,463.9c0,0-1.5-2.1-3.1-4.3"/>
				<path class="st3" d="M735.3,445.5c0,0,2-2.8,3.8-5.4"/>
				<path class="st3" d="M735.3,457l6.8-9.6"/>
				<path class="st3" d="M931.4,457.4c6.3,0,11.3-5.1,11.3-11.3c0-6.3-5.1-11.3-11.3-11.3c-6.3,0-11.3,5.1-11.3,11.3
					C920,452.3,925.1,457.4,931.4,457.4z"/>
				<path class="st3" d="M950.9,434.8c8.4,0,15.2-6.8,15.2-15.2c0-8.4-6.8-15.2-15.2-15.2c-8.4,0-15.2,6.8-15.2,15.2
					C935.7,428,942.5,434.8,950.9,434.8z"/>
				<path class="st3" d="M963.5,450.4c4.2,0,7.6-3.4,7.6-7.6c0-4.2-3.4-7.6-7.6-7.6c-4.2,0-7.6,3.4-7.6,7.6
					C955.9,447,959.3,450.4,963.5,450.4z"/>
				<path class="st3" d="M950.9,419.6v73.6"/>
				<path class="st3" d="M951,467.9c0,0-5.3-16.6-20.2-21.8"/>
				<path class="st3" d="M950.9,462.1c0,0,2.6-8.3,9.4-15"/>
				<path class="st4" d="M959.7,356.3c2.5-2.5,2.5-6.4,0-8.9c-2.5-2.5-6.4-2.5-8.9,0c-2.5,2.5-2.5,6.4,0,8.9
					C953.2,358.8,957.2,358.8,959.7,356.3z"/>
				<path class="st4" d="M969.3,344.9c4.3-1.8,6.3-6.7,4.6-11c-1.8-4.3-6.7-6.3-11-4.6c-4.3,1.8-6.3,6.7-4.6,11
					C960.1,344.7,965,346.7,969.3,344.9z"/>
				<path class="st4" d="M981.5,347.5c0.5-2.3-0.9-4.5-3.1-5.1c-2.3-0.5-4.5,0.9-5.1,3.1c-0.5,2.3,0.9,4.5,3.1,5.1
					C978.7,351.2,981,349.8,981.5,347.5z"/>
				<path class="st4" d="M966.1,337.2v51.2"/>
				<path class="st4" d="M966.1,364c0,0-2.9-9.2-11.2-12.1"/>
				<path class="st4" d="M966.1,358.2c0,0,2.9-9.2,11.2-12.1"/>
				<path class="st3" d="M757.1,426.4c0-9.9,8-18,18-18c0.1,0,0.2,0,0.4,0c-0.2-1.2-0.4-2.4-0.4-3.6c0-9.9,8-18,18-18
					c5.1,0,9.8,2.2,13.1,5.6c2.5-1.3,5.3-2.1,8.3-2.1c7.7,0,14.2,4.8,16.8,11.6c0.4,0,0.8-0.1,1.2-0.1c9.9,0,18,8,18,18
					c0,9.1-6.8,16.6-15.5,17.8c-2.9,5.9-9,10-16.1,10c-1.5,0-2.9-0.2-4.3-0.5c-2.9,2.1-6.5,3.3-10.3,3.3c-4.1,0-7.9-1.4-11-3.8
					c-3,2.3-6.8,3.8-11,3.8c-6.2,0-11.7-3.1-14.9-7.9C761.3,439.7,757.1,433.5,757.1,426.4L757.1,426.4z"/>
				<path class="st3" d="M808.2,458.3c1.6-3.1,5.3-4.3,8.4-2.7c0,0,0.1,0,0.1,0.1c0.1-0.4,0.3-0.8,0.5-1.2c1.6-3.1,5.3-4.3,8.4-2.7
					c1.6,0.8,2.7,2.2,3.1,3.8c1,0,2,0.2,2.9,0.7c2.4,1.2,3.6,3.7,3.4,6.2c0.1,0.1,0.3,0.1,0.4,0.2c3.1,1.6,4.3,5.3,2.7,8.4
					c-1.4,2.8-4.7,4.1-7.6,3c-1.8,1.4-4.4,1.7-6.6,0.5c-0.5-0.2-0.9-0.5-1.2-0.8c-1.2,0.2-2.5,0-3.7-0.6c-1.3-0.7-2.2-1.7-2.8-2.9
					c-1.3,0.2-2.7,0.1-4-0.6c-1.9-1-3.1-2.8-3.4-4.8C807.3,463.1,807,460.5,808.2,458.3L808.2,458.3z"/>
				<path class="st3" d="M803.7,406.2v88"/>
				<path class="st3" d="M803.7,439.3c0,0-13.2-17.3-36.3-17.3"/>
				<path class="st3" d="M803.7,424.2c0,0,7.3-14.9,25.9-14.9"/>
				<path class="st3" d="M803.7,477.5c0,0,6.3-11.9,16.2-13.3"/>
				<path class="st3" d="M1320.8,335.4h41.8l-12.1,18.7h-41.8L1320.8,335.4z"/>
				<path class="st3" d="M1316.7,342h41.1"/>
				<path class="st3" d="M1312.5,348.4h41.8"/>
				<path class="st3" d="M1351.8,335.4l-12.1,18.7"/>
				<path class="st3" d="M1342.3,335.4l-12.1,18.7"/>
				<path class="st3" d="M1330.9,335.4l-12.1,18.7"/>
				<path class="st3" d="M1269.6,306.8h-60.6v162.5"/>
				<path class="st3" d="M1297.7,405v-70.4l-28.1-27.8v138"/>
				<path class="st3" d="M1264.7,306.5v-47.2h-42.1v47.4"/>
				<path class="st3" d="M1284.2,320.8v-42.1l-19.5-19.4v47.2"/>
				<path class="st3" d="M1245.6,331.1h12.1V319h-12.1V331.1z"/>
				<path class="st3" d="M1245.6,349.1h12.1V337h-12.1V349.1z"/>
				<path class="st3" d="M1226.9,349.1h12.1V319h-12.1V349.1z"/>
				<path class="st3" d="M1245.6,369.3h12.1v-12.1h-12.1V369.3z"/>
				<path class="st3" d="M1245.6,387.3h12.1v-12.1h-12.1V387.3z"/>
				<path class="st3" d="M1226.9,387.3h12.1v-30.1h-12.1V387.3z"/>
				<path class="st3" d="M1245.6,407.5h12.1v-12.1h-12.1V407.5z"/>
				<path class="st3" d="M1245.6,425.6h12.1v-12.1h-12.1V425.6z"/>
				<path class="st3" d="M1226.9,425.6h12.1v-30.1h-12.1V425.6z"/>
				<path class="st3" d="M1245.6,445.7h12.1v-12.1h-12.1V445.7z"/>
				<path class="st3" d="M1226.9,463.8h12.1v-30.1h-12.1V463.8z"/>
				<path class="st3" d="M1221.1,327.2h-11.2"/>
				<path class="st3" d="M1221.1,339.5h-11.2"/>
				<path class="st3" d="M1221.1,351.9h-11.2"/>
				<path class="st3" d="M1221.1,364.2h-11.2"/>
				<path class="st3" d="M1221.1,376.6h-11.2"/>
				<path class="st3" d="M1221.1,388.9h-11.2"/>
				<path class="st3" d="M1221.1,401.3h-11.2"/>
				<path class="st3" d="M1221.1,413.6h-11.2"/>
				<path class="st3" d="M1221.1,426h-11.2"/>
				<path class="st3" d="M1221.1,438.3h-11.2"/>
				<path class="st3" d="M1221.1,450.7h-11.2"/>
				<path class="st3" d="M1245.5,273.6h9.7V264h-9.7V273.6z"/>
				<path class="st3" d="M1228.7,273.6h9.7V264h-9.7V273.6z"/>
				<path class="st3" d="M1245.5,287.7h9.7V278h-9.7V287.7z"/>
				<path class="st3" d="M1228.7,287.7h9.7V278h-9.7V287.7z"/>
				<path class="st3" d="M1245.5,301.7h9.7V292h-9.7V301.7z"/>
				<path class="st3" d="M1228.7,301.7h9.7V292h-9.7V301.7z"/>
				<path class="st3" d="M1381.4,479.5c0-9.8,0-26.7,0-28.2v-43.5l-18.8-34.8l-18.8,34.8v86.3"/>
				<path class="st3" d="M1374.6,394.8c0-6.3,0-8.5,0-9.4v-27.7l-12-22.2"/>
				<path class="st3" d="M1374.6,365.5c0,0-11.5-21.2-13.9-25.8"/>
				<path class="st3" d="M1350.6,354.2v18.1"/>
				<path class="st3" d="M1317.4,354.2v18.1"/>
				<path class="st3" d="M1308.8,354.2v32.6"/>
				<path class="st3" d="M1343.8,494.1v-86.3H1296v86.3"/>
				<path class="st3" d="M1362.6,373h-45.2l-21.3,34.8h47.8L1362.6,373z"/>
				<path class="st3" d="M1365,443.9h10.3v-10.3H1365V443.9z"/>
				<path class="st3" d="M1349.9,457.7h10.3v-24.2h-10.3V457.7z"/>
				<path class="st3" d="M1365,457.8h10.3v-10.3H1365V457.8z"/>
				<path class="st3" d="M1349.9,457.8h10.3v-10.3h-10.3V457.8z"/>
				<path class="st3" d="M1365,471.6h10.3v-24.2H1365V471.6z"/>
				<path class="st3" d="M1349.9,471.6h10.3v-10.3h-10.3V471.6z"/>
				<path class="st3" d="M1314.7,494.1v-39.8h18.6v39.8"/>
				<path class="st3" d="M1357.9,381.2h-45.6"/>
				<path class="st3" d="M1353.1,389.5h-45.8"/>
				<path class="st3" d="M1348.6,398.1H1302"/>
				<path class="st3" d="M1353.1,373l-20.6,34.8"/>
				<path class="st3" d="M1343.8,373l-20.6,34.8"/>
				<path class="st3" d="M1334.6,373l-20.6,34.8"/>
				<path class="st3" d="M1381.2,418.4c-4.2-7.8-21.6-39.9-21.6-39.9"/>
				<path class="st3" d="M904.7,439.2H915v-37.9h-10.3V439.2z"/>
				<path class="st3" d="M904.7,417.4H915"/>
				<path class="st3" d="M909.8,401.3v38"/>
				<path class="st3" d="M1325.3,373l-20.6,34.8"/>
				<path class="st3" d="M899.8,475.4v-87H982v6.3v99.5"/>
				<path class="st3" d="M899.8,394.7H982"/>
				<path class="st3" d="M943.2,334.4l-43.4-34.3v88.2h43.4V334.4z"/>
				<path class="st3" d="M910,350.9h22.8v-6.7H910V350.9z"/>
				<path class="st3" d="M910,364.1h22.8v-6.7H910V364.1z"/>
				<path class="st3" d="M910,377.4h22.8v-6.7H910V377.4z"/>
				<path class="st3" d="M881.3,455.1c-1.1-6-4.3-10.3-8.1-10.3s-7,4.4-8.1,10.6"/>
				<path class="st3" d="M872.8,464.2c-1.1-2-2.6-4-4.5-5.8c-6-5.8-13.5-7.8-16.8-4.5c-3.1,3.2-1.2,10.2,4.2,15.9"/>
				<path class="st3" d="M884.9,474.2c1.7-1,3.4-2.4,5-4c5.8-6,7.8-13.5,4.5-16.8c-3.4-3.3-10.8-1.1-16.6,4.9
					c-1.6,1.6-2.9,3.4-3.9,5.2"/>
				<path class="st3" d="M862.7,469.3c-2.6-0.8-5-0.7-6.3,0.8c-2.5,2.6-0.8,8.4,3.8,12.9c1.9,1.9,4.1,3.2,6.1,4"/>
				<path class="st3" d="M878.4,487.3c2.5-0.6,5.3-2.2,7.7-4.7c4.1-4.2,5.8-9.4,4.1-12.2"/>
				<path class="st3" d="M872.9,488.3c6.7,0,12-5.4,12-12s-5.4-12-12-12c-6.7,0-12,5.4-12,12S866.2,488.3,872.9,488.3z"/>
				<path class="st3" d="M887.8,493.7c0-2.8-2.3-5.1-5.1-5.1h-17.9c-2.8,0-5.1,2.3-5.1,5.1"/>
				<path class="st3" d="M1277.9,455.1c-1.1-6-4.3-10.3-8.1-10.3c-3.8,0-7,4.4-8.1,10.6"/>
				<path class="st3" d="M1269.4,464.2c-1.1-2-2.6-4-4.5-5.8c-6-5.8-13.5-7.8-16.8-4.5c-3.1,3.2-1.2,10.2,4.2,15.9"/>
				<path class="st3" d="M1281.5,474.2c1.7-1,3.4-2.4,5-4c5.8-6,7.8-13.5,4.5-16.8c-3.4-3.3-10.8-1.1-16.6,4.9
					c-1.6,1.6-2.9,3.4-3.9,5.2"/>
				<path class="st3" d="M1259.3,469.3c-2.6-0.8-4.9-0.7-6.3,0.8c-2.5,2.6-0.8,8.4,3.8,12.9c1.9,1.9,4.1,3.2,6.1,4"/>
				<path class="st3" d="M1275,487.3c2.5-0.6,5.3-2.2,7.7-4.7c4.1-4.2,5.8-9.4,4.1-12.2"/>
				<path class="st3" d="M1269.5,488.3c6.7,0,12.1-5.4,12.1-12s-5.4-12-12.1-12c-6.7,0-12,5.4-12,12S1262.9,488.3,1269.5,488.3z"/>
				<path class="st3" d="M1284.4,493.7c0-2.8-2.3-5.1-5.1-5.1h-17.9c-2.8,0-5.1,2.3-5.1,5.1"/>
				<path class="st3" d="M1202.5,494.2c-4.1,0-7.1-3.7-7.1-7.2c0-2.3,1.9-4.3,3.8-5.5c-1.2-1.2-2-2.8-2-4.6c0-3.5,2.9-6.4,6.4-6.4
					c1.2,0,2.3,0.3,3.2,0.9c0.9-1.3,2.3-2.1,4-2.1c2.3,0,4.2,1.6,4.7,3.7c0.7-0.2,1.4-0.4,2.1-0.4c3.5,0,6.4,2.9,6.4,6.4
					c0,1-0.2,2-0.7,2.9c2.3,1,3.9,3.2,3.9,5.9c0,3.3-2.5,6-5.8,6.4"/>
				<path class="st3" d="M1240.8,258.4c-0.2-2.7-1.8-5.1-4-6.4c1.6-1.5,2.6-3.6,2.6-6c0-4.6-3.7-8.3-8.3-8.3c-1.5,0-2.9,0.4-4.2,1.1
					c-1.1-1.6-3-2.7-5.2-2.7c-3,0-5.4,2-6.1,4.8c-0.9-0.3-1.8-0.5-2.8-0.5c-4.6,0-8.3,3.7-8.3,8.3c0,1.3,0.3,2.6,0.9,3.7
					c-3,1.2-5.1,4.2-5.1,7.6c0,4.3,3.3,7.8,7.5,8.2c0.8,3.7,4.1,6.4,8.1,6.4c1.2,0,2.4-0.3,3.4-0.8c0.8,0.6,1.8,1,2.8,1.3"/>
				<path class="st3" d="M1396.1,469.4c0-0.2-0.1-0.5-0.1-0.8c0-3,2.4-5.4,5.4-5.4c1,0,1.9,0.3,2.7,0.7c0.7-1.1,2-1.7,3.4-1.7
					c1.9,0,3.5,1.3,4,3.1c0.6-0.2,1.2-0.3,1.8-0.3c3,0,5.4,2.4,5.4,5.4c0,0.9-0.2,1.7-0.6,2.4c1.9,0.8,3.3,2.7,3.3,5
					c0,1.4-0.5,2.6-1.4,3.6"/>
				<path class="st3" d="M894.9,224c-3.1-2.8-5-6.8-5-11.2c0-8.6,7.2-15.5,16.1-15.5c2.9,0,5.7,0.8,8.1,2.1c2.2-3,5.9-5,10-5
					c5.8,0,10.6,3.8,11.9,9c1.4-0.5,3-0.8,4.5-0.9c4.2-7.1,11.9-11.9,20.7-11.9c13.2,0,24,10.7,24,24c0,11.3-7.8,20.8-18.4,23.3
					h-79.8c0-0.2,0-0.3,0-0.5C887.1,231.7,890.2,226.8,894.9,224L894.9,224z"/>
				<path class="st3" d="M1105.7,455l-22.9-23.8c0,0-10,19.4-11.9,23.2"/>
				<path class="st3" d="M1085.9,434.4c-3.2,6.2-9.4,18-10.5,20.2h-4.6"/>
				<path class="st3" d="M1105.7,494v-39"/>
				<path class="st3" d="M1105.7,455l43.1,0.1V494"/>
				<path class="st3" d="M1082.8,431.1h42.3l23.7,23.9"/>
				<path class="st3" d="M1088.5,437.1h42.3"/>
				<path class="st3" d="M1094.2,442.9h42.5"/>
				<path class="st3" d="M1099.8,448.8h42.7"/>
				<path class="st3" d="M1117.1,431.2l23.8,23.8"/>
				<path class="st3" d="M1109,431.2l23.8,23.8"/>
				<path class="st3" d="M1101,431.2l23.8,23.8"/>
				<path class="st3" d="M1091.2,431.2L1115,455"/>
				<path class="st3" d="M1091.2,462.4h-5.9v10.9h5.9V462.4z"/>
				<path class="st3" d="M1097.1,473.3h-5.9v-10.9h5.9v5.5V473.3z"/>
				<path class="st3" d="M1117.9,494v-27h10.2v27"/>
				<path class="st3" d="M1136.3,467h9.6"/>
				<path class="st3" d="M1133,470.3h9.6"/>
				<path class="st3" d="M1136.3,460.3h9.6"/>
				<path class="st3" d="M1133,463.7h9.6"/>
				<path class="st3" d="M1136.3,473.7h9.6"/>
				<path class="st3" d="M1133,477.1h9.6"/>
				<path class="st3" d="M1136.3,480.5h9.6"/>
				<path class="st3" d="M1133,483.9h9.6"/>
				<path class="st3" d="M1091.2,467.8h5.9"/>
				<path class="st3" d="M1075.4,454.6V494"/>
				<path class="st3" d="M1384.3,478.8c-0.3-0.8-0.5-1.7-0.5-2.6c0-4.2,3.4-7.7,7.7-7.7c3.8,0,6.9,2.7,7.5,6.2
					c1-2.3,3.2-3.9,5.9-3.9c3.5,0,6.4,2.9,6.4,6.4c0,0.2,0,0.4,0,0.6c0.2,0,0.3,0,0.5,0c4.7,0,8.5,3.8,8.5,8.5
					c0,4.7-3.8,8.5-8.5,8.5c-1.6,0-3.1-0.4-4.3-1.2c-1.9,2.2-4.6,3.6-7.7,3.6c-3.1,0-5.9-1.4-7.7-3.6c-1.5,1.2-3.4,1.9-5.4,1.9
					c-4.7,0-8.6-3.8-8.6-8.5C1378.1,483.1,1380.7,479.8,1384.3,478.8L1384.3,478.8z"/>
				<path class="st3" d="M1418.2,405.9c0,0-0.1-8,12.6-11.2C1430.7,394.8,1427,407.2,1418.2,405.9z"/>
				<path class="st3" d="M1412.2,463.7v-63.3"/>
				<path class="st3" d="M1418.2,406c0,0-5.9,4.8-5.9,10.9"/>
				<path class="st3" d="M1418.2,421.6c0,0-0.1-8,12.6-11.2C1430.7,410.4,1427,422.9,1418.2,421.6z"/>
				<path class="st3" d="M1418.2,421.7c0,0-5.9,4.8-5.9,10.9"/>
				<path class="st3" d="M1418.2,437.3c0,0-0.1-8,12.6-11.2C1430.7,426.1,1427,438.6,1418.2,437.3z"/>
				<path class="st3" d="M1418.2,437.4c0,0-5.9,4.8-5.9,10.9"/>
				<path class="st3" d="M1406.3,405.9c0,0,0.1-8-12.6-11.2C1393.8,394.8,1397.5,407.2,1406.3,405.9z"/>
				<path class="st3" d="M1412.3,400.5c0,0,6.5-5.7,0-16.8C1412.2,383.6,1405.5,394.6,1412.3,400.5z"/>
				<path class="st3" d="M1406.3,406c0,0,5.9,4.8,5.9,10.9"/>
				<path class="st3" d="M1406.3,421.6c0,0,0.1-8-12.6-11.2C1393.8,410.4,1397.5,422.9,1406.3,421.6z"/>
				<path class="st3" d="M1406.3,421.7c0,0,5.9,4.8,5.9,10.9"/>
				<path class="st3" d="M1406.3,437.3c0,0,0.1-8-12.6-11.2C1393.8,426.1,1397.5,438.6,1406.3,437.3z"/>
				<path class="st3" d="M1406.3,437.4c0,0,5.9,4.8,5.9,10.9"/>
				<path class="st3" d="M1381.4,494.1H726.9"/>
				<path class="st3" d="M1502.7,494.3h-87.8"/>
				<path class="st3" d="M1109.1,282.4c1.2,0.9,13.4-13.2,27.2-31.6c13.9-18.3,24.1-33.9,22.9-34.8c-1.2-0.9-13.4,13.2-27.2,31.6
					C1118.2,265.9,1107.9,281.5,1109.1,282.4z"/>
				<path class="st3" d="M1107.7,150.7c-1.2,0.9,9.4,16.3,23.7,34.3c14.2,18,26.7,31.9,27.9,31c1.2-0.9-9.4-16.3-23.7-34.3
					C1121.3,163.7,1108.8,149.8,1107.7,150.7L1107.7,150.7z"/>
				<path class="st3" d="M1234.9,181.3c0.6,1.4-15.8,10.2-36.7,19.8s-38.3,16.2-38.9,14.9c-0.6-1.4,15.8-10.2,36.7-19.8
					S1234.3,180,1234.9,181.3z"/>
				<path class="st3" d="M1121,198.7c-3.4,8.5-4.1,18.2-1.2,27.6c2.1,6.9,5.9,12.8,10.7,17.4"/>
				<path class="st3" d="M1147.1,253.5c7.7,2.4,16.1,2.6,24.4,0c7.8-2.4,14.3-6.9,19.2-12.6"/>
				<path class="st3" d="M1198.1,227.8c2.9-8.1,3.2-17.1,0.5-25.9c-1.9-6.1-5.1-11.5-9.2-15.9"/>
				<path class="st3" d="M1180.3,178.6c-9.7-5.7-21.6-7.5-33.2-3.9c-5.1,1.6-9.6,4-13.6,7.2"/>
				<path class="st3" d="M1182.8,201c-1.2-2.1-2.6-4-4.2-5.7"/>
				<path class="st3" d="M1168.4,188.7c-3.7-1.4-7.8-1.9-11.9-1.5"/>
				<path class="st3" d="M1136.4,199.9c-3,4.9-4.5,10.7-3.9,16.6"/>
				<path class="st3" d="M1138.3,231c1.4,1.7,3,3.2,4.7,4.6"/>
				<path class="st3" d="M1151.2,239.8c3.7,1.2,7.7,1.5,11.7,1"/>
				<path class="st3" d="M1173.7,236.8c8.1-5.1,12.9-14.3,12.5-24"/>
				<path class="st3" d="M1165,493.8c0-4.4-2.4-296.7-5.3-296.7c-2.9,0-5.3,292.4-5.3,296.7"/>
				<path class="st3" d="M685.7,313.6c2.1,1.6,23.7-23.4,48.2-55.9s42.7-60.1,40.6-61.7c-2.1-1.6-23.7,23.4-48.2,55.9
					C701.8,284.4,683.6,312,685.7,313.6L685.7,313.6z"/>
				<path class="st3" d="M683.2,80.4c-2.1,1.6,16.7,28.9,41.9,60.8c25.2,31.9,47.3,56.5,49.4,54.9c2.1-1.6-16.7-28.9-41.9-60.8
					C707.4,103.3,685.3,78.7,683.2,80.4L683.2,80.4z"/>
				<path class="st3" d="M908.5,134.6c1.1,2.4-28,18.1-65,35.1c-37,17-67.9,28.8-69,26.4c-1.1-2.4,28-18.1,65-35.1
					C876.6,144,907.4,132.1,908.5,134.6z"/>
				<path class="st3" d="M706.9,165.2c-6.1,15-7.2,32.2-2,48.9c3.8,12.1,10.4,22.6,18.9,30.9"/>
				<path class="st3" d="M753,262.3c13.6,4.2,28.5,4.5,43.2,0c13.7-4.3,25.3-12.2,34-22.4"/>
				<path class="st3" d="M843.4,216.9c5.1-14.3,5.7-30.3,0.9-45.9c-3.3-10.8-9-20.3-16.2-28.1"/>
				<path class="st3" d="M811.9,129.8c-17.1-10.2-38.3-13.3-58.9-7c-9,2.8-17.1,7.1-24,12.7"/>
				<path class="st3" d="M816.2,169.3c-2.1-3.7-4.6-7.1-7.5-10.1"/>
				<path class="st3" d="M790.7,147.7c-6.6-2.4-13.8-3.3-21.1-2.6"/>
				<path class="st3" d="M734.1,167.4c-5.3,8.6-7.9,18.9-7,29.3"/>
				<path class="st3" d="M737.4,222.5c2.4,3,5.2,5.7,8.3,8.1"/>
				<path class="st3" d="M760.4,238.1c6.6,2,13.6,2.7,20.8,1.7"/>
				<path class="st3" d="M800.1,232.9c14.4-9.1,22.9-25.4,22.1-42.5"/>
				<path class="st3" d="M779.7,493.8c0-0.9-0.2-19.4-0.6-43.3"/>
				<path class="st3" d="M778.1,394.4c-1-82.4-0.7-222.8-2.1-222.8c-1.6,0-4.6,147.1-5.5,237.5"/>
				<path class="st3" d="M770,445.7c-0.4,24.9-0.8,47.2-0.8,48.1"/>
				<path class="st3" d="M1333.5,362.2h12.3v-4h-12.3V362.2z"/>
				<path class="st3" d="M1322.8,362.2h6.9v-4h-6.9V362.2z"/>
				<path class="st3" d="M1343.8,230.6h-50.2c-6.5,0-11.8-5.4-11.4-11.8c0-0.2,0-0.4,0.1-0.6c0.6-6,5.5-10.7,11.5-11.3
					c2.3-0.2,4.5,0.2,6.4,1.1c3.7-5.6,10.1-9.3,17.4-9.3c4.2,0,8.1,1.3,11.4,3.4c1.3-2.5,4.1-4.2,7.2-4.2c4.5,0,8.1,3.5,8.1,7.8
					c0,1.8-0.6,3.4-1.6,4.7c5.7,0.9,10,5.7,10,11.4c0,0,0,0.1,0,0.1C1352.6,226.7,1348.6,230.6,1343.8,230.6L1343.8,230.6z"/>
				<path class="st3" d="M351.4,260.1h-41.2c-4.5,0-8.3-3.6-8.2-8.1c0-0.2,0-0.3,0-0.5c0.3-5.5,4.7-10.1,10.2-10.5
					c1.7-0.1,3.3,0.1,4.7,0.7c2.9-3.4,7.2-5.5,12-5.5c5.5,0,10.3,2.8,13.1,7c2-1.5,4.5-2.3,7.3-2.2c5.6,0.3,10.1,4.9,10.4,10.5
					c0,0.2,0,0.3,0,0.5C359.7,256.4,355.9,260.1,351.4,260.1L351.4,260.1z"/>
				<path class="st3" d="M906.1,491.4c3.7-3.7,3.7-9.6,0-13.3c-3.7-3.7-9.6-3.7-13.3,0c-3.7,3.7-3.7,9.6,0,13.3
					C896.5,495.1,902.4,495.1,906.1,491.4z"/>
				<path class="st3" d="M748.9,494c5.1-0.8,8.6-5.6,7.8-10.8c-0.8-5.1-5.6-8.6-10.8-7.8c-5.1,0.8-8.6,5.6-7.8,10.8
					C739,491.3,743.8,494.8,748.9,494z"/>
				<path class="st4" d="M1072.2,322.3c0,0-1-10.3-12.1-12.5C1060,309.8,1059.3,320.4,1072.2,322.3z"/>
				<path class="st4" d="M1063.5,313.7c0,0,5.1,6.8,12,10.8"/>
				<path class="st4" d="M1090.7,244.4c0,0,9.9,3,16.2-6.3C1106.9,238.1,1097.3,233.3,1090.7,244.4z"/>
				<path class="st4" d="M1101.9,239.7c0,0-8.2,2.1-14.6,6.9"/>
				<path class="st4" d="M1177.4,356.7c0,0,9.2,2.2,14.5-6.6C1191.9,350.1,1183,346.3,1177.4,356.7z"/>
				<path class="st4" d="M1187.5,351.9c0,0-7.4,2.3-13,7"/>
				<path class="st4" d="M642.1,306.8c0,0,9.2,2.2,14.5-6.6C656.6,300.1,647.6,296.3,642.1,306.8z"/>
				<path class="st4" d="M652.1,301.9c0,0-7.4,2.3-13,7"/>
				<path class="st4" d="M1398.9,354.4c0,0,9.2,2.2,14.5-6.6C1413.4,347.8,1404.5,343.9,1398.9,354.4z"/>
				<path class="st4" d="M1409,349.6c0,0-7.4,2.3-13,7"/>
				<path class="st3" d="M1025.5,310.4l-8.4-4.1"/>
				<path class="st3" d="M899.7,300.1l-15.2,22.4V397"/>
				<path class="st3" d="M884.6,405v8.2"/>
				<path class="st3" d="M884.6,420.8v7.5"/>
				<path class="st3" d="M884.6,436.8v16.5"/>
				<path class="st3" d="M878.7,405.9c0,0-0.1-8,12.6-11.2C891.3,394.8,887.6,407.2,878.7,405.9z"/>
				<path class="st3" d="M872.8,463.7v-63.3"/>
				<path class="st3" d="M878.7,406c0,0-5.9,4.8-5.9,10.9"/>
				<path class="st3" d="M878.7,421.6c0,0-0.1-8,12.6-11.2C891.3,410.4,887.6,422.9,878.7,421.6z"/>
				<path class="st3" d="M878.7,421.7c0,0-5.9,4.8-5.9,10.9"/>
				<path class="st3" d="M878.7,437.3c0,0-0.1-8,12.6-11.2C891.3,426.1,887.6,438.6,878.7,437.3z"/>
				<path class="st3" d="M878.7,437.4c0,0-5.9,4.8-5.9,10.9"/>
				<path class="st3" d="M866.9,405.9c0,0,0.1-8-12.6-11.2C854.3,394.8,858,407.2,866.9,405.9z"/>
				<path class="st3" d="M872.8,400.5c0,0,6.5-5.7,0-16.8C872.8,383.6,866.1,394.6,872.8,400.5z"/>
				<path class="st3" d="M866.9,406c0,0,5.9,4.8,5.9,10.9"/>
				<path class="st3" d="M866.9,421.6c0,0,0.1-8-12.6-11.2C854.3,410.4,858,422.9,866.9,421.6z"/>
				<path class="st3" d="M866.9,421.7c0,0,5.9,4.8,5.9,10.9"/>
				<path class="st3" d="M866.9,437.3c0,0,0.1-8-12.6-11.2C854.3,426.1,858,438.6,866.9,437.3z"/>
				<path class="st3" d="M866.9,437.4c0,0,5.9,4.8,5.9,10.9"/>
				<path class="st3" d="M1029.8,494.1h37.6V359.9l-18.8-34.8l-18.8,34.8V494.1z"/>
				<path class="st3" d="M982,494.1h47.8V359.9H982V494.1z"/>
				<path class="st3" d="M1048.6,325.1h-46.3L982,359.9h47.8L1048.6,325.1z"/>
				<path class="st3" d="M1024,325.1l-20.2,34.8"/>
				<path class="st3" d="M1039.2,342.4h-24.7"/>
				<path class="st3" d="M1067.4,359.9h-37.6"/>
				<path class="st3" d="M1002.3,325.1h14.9v-18.8h-14.9V325.1z"/>
				<path class="st3" d="M1025.5,325.1v-14.7"/>
				<path class="st3" d="M993.8,360.1v133.5"/>
				<path class="st3" d="M993.8,426.1H982"/>
				<path class="st3" d="M1013.4,382.5h11.9v-11.9h-11.9V382.5z"/>
				<path class="st3" d="M997.5,382.5h11.9v-11.9h-11.9V382.5z"/>
				<path class="st3" d="M1013.4,399.2h11.9v-11.9h-11.9V399.2z"/>
				<path class="st3" d="M997.5,399.2h11.9v-11.9h-11.9V399.2z"/>
				<path class="st3" d="M1013.4,415.9h11.9V404h-11.9V415.9z"/>
				<path class="st3" d="M997.5,415.9h11.9V404h-11.9V415.9z"/>
				<path class="st3" d="M1013.4,432.5h11.9v-11.9h-11.9V432.5z"/>
				<path class="st3" d="M997.5,432.5h11.9v-11.9h-11.9V432.5z"/>
				<path class="st3" d="M1013.4,449.2h11.9v-11.9h-11.9V449.2z"/>
				<path class="st3" d="M997.5,449.2h11.9v-11.9h-11.9V449.2z"/>
				<path class="st3" d="M1051.4,330.2l-15.5,29.7"/>
				<path class="st3" d="M1038,360.1v55.4"/>
				<path class="st3" d="M1038,420.3v29.3"/>
				<path class="st3" d="M1038,464.8v23.5"/>
				<path class="st3" d="M1046,360.1v26.4"/>
				<path class="st3" d="M1046,398.3v56.9"/>
				<path class="st3" d="M1046,463.8v24.6"/>
				<path class="st3" d="M1053.9,360.1v62.6"/>
				<path class="st3" d="M1053.9,436.9v51.4"/>
				<path class="st3" d="M1061.8,360.1v128.2"/>
				<path class="st3" d="M1007,306.2v18.8"/>
				<path class="st4" d="M1124.7,430.9v-46.2h12.3v58.1"/>
				<path class="st4" d="M1137,384.8l8.3,10.6v55.3"/>
				<path class="st4" d="M1124.8,393.2h7.5"/>
				<path class="st4" d="M1124.8,398.3h7.5"/>
				<path class="st4" d="M1124.8,403.3h7.5"/>
				<path class="st4" d="M1124.8,408.3h7.5"/>
				<path class="st4" d="M1124.8,413.3h7.5"/>
				<path class="st4" d="M1124.8,418.4h7.5"/>
				<path class="st4" d="M1124.8,423.4h7.5"/>
				<path class="st4" d="M1142.3,391.6v55.6"/>
			</g>
		</g>
		<path class="st5" d="M391.3,249h7.6v-34.1h-7.6V249z M404.9,249h7.2v-11.7c0-4.3,2.1-6.3,4.8-6.3c2.6,0,3.9,2,3.9,5.3V249h7.2
			v-13.9c0-6.3-3.4-10.7-9.3-10.7c-3.1,0-5.5,1.3-6.7,3V225h-7.2V249z M445.8,249.3c1.9,0,3.3-0.2,4.3-0.5v-6.4
			c-0.8,0.3-1.5,0.4-2.6,0.4c-2.9,0-4.1-1.2-4.1-4.1v-7.4h6.7V225h-6.7v-6.7h-7.2v6.7h-4.8v6.3h4.8v8.9
			C436.1,246.3,440.4,249.3,445.8,249.3z M465.6,249.5c6,0,11-3.5,12.6-8.5h-7.6c-0.6,1.3-2.5,2.3-4.6,2.3c-3.9,0-5.7-2.2-6-4.6
			h18.5c0.3-9.5-5.9-14.2-12.8-14.2c-7.2,0-12.7,5.3-12.7,12.5C452.9,244.2,458.2,249.5,465.6,249.5z M465.4,230.2
			c1.9,0,4.2,1,5,3.8h-10.3C460.8,231.9,462.5,230.2,465.4,230.2z M482.9,249h7.2v-11.4c0-3.5,1.7-5.9,4.8-5.9
			c1.2,0,2.1,0.2,3.2,0.6V225c-0.9-0.2-1.6-0.3-2.4-0.3c-2.6,0-4.9,1.8-5.7,3.9V225h-7.2V249z M502.3,249h7.2v-11.7
			c0-4.3,2.1-6.3,4.8-6.3c2.6,0,3.9,2,3.9,5.3V249h7.2v-13.9c0-6.3-3.4-10.7-9.3-10.7c-3.1,0-5.5,1.3-6.7,3V225h-7.2V249z
			 M542.4,249.5c6,0,11-3.5,12.6-8.5h-7.6c-0.6,1.3-2.5,2.3-4.6,2.3c-3.9,0-5.7-2.2-6-4.6h18.5c0.3-9.5-5.9-14.2-12.8-14.2
			c-7.2,0-12.7,5.3-12.7,12.5C529.7,244.2,535,249.5,542.4,249.5z M542.3,230.2c1.9,0,4.2,1,5,3.8H537
			C537.6,231.9,539.4,230.2,542.3,230.2z M571.4,249.3c1.9,0,3.3-0.2,4.3-0.5v-6.4c-0.8,0.3-1.5,0.4-2.6,0.4c-2.9,0-4.1-1.2-4.1-4.1
			v-7.4h6.7V225H569v-6.7h-7.2v6.7H557v6.3h4.8v8.9C561.8,246.3,566.1,249.3,571.4,249.3z M604.9,249.5c6.3,0,11.1-5.7,11.1-12.5
			s-4.8-12.5-11.1-12.5c-3.2,0-5.6,1.6-6.5,2.9V213h-7.2v36h7.2v-2.4C599.3,247.9,601.7,249.5,604.9,249.5z M603.3,243
			c-3.3,0-5.5-2.5-5.5-6s2.2-6,5.5-6c3.3,0,5.5,2.5,5.5,6S606.5,243,603.3,243z M629.3,249.5c3.1,0,5.2-1.3,6.4-3v2.4h7.2v-24h-7.2
			v11.7c0,4.4-1.8,6.3-4.5,6.3c-2.7,0-3.7-2-3.7-5.5V225h-7.2v13.7C620.3,245.2,623.4,249.5,629.3,249.5z M652.5,221.7
			c2.5,0,4.6-2,4.6-4.5s-2-4.5-4.6-4.5c-2.4,0-4.5,2-4.5,4.5S650.1,221.7,652.5,221.7z M648.9,249h7.2v-24h-7.2V249z M662.1,249h7.2
			v-36h-7.2V249z M687.6,249.3c1.9,0,3.3-0.2,4.3-0.5v-6.4c-0.8,0.3-1.5,0.4-2.6,0.4c-2.9,0-4.1-1.2-4.1-4.1v-7.4h6.7V225h-6.7v-6.7
			h-7.2v6.7h-4.8v6.3h4.8v8.9C677.9,246.3,682.3,249.3,687.6,249.3z M710,249h7.2v-17.7h6.7V225h-6.7v-1.7c0-2.9,1.2-4.1,4.1-4.1
			c1.1,0,1.8,0.1,2.6,0.4v-6.4c-1.1-0.3-2.4-0.5-4.3-0.5c-5.3,0-9.6,3.6-9.6,9.6v2.6h-4.8v6.3h4.8V249z M738,249.5
			c6.9,0,12.6-5.5,12.6-12.5s-5.7-12.5-12.6-12.5c-6.9,0-12.6,5.5-12.6,12.5S731.1,249.5,738,249.5z M738,242.8
			c-3,0-5.3-2.4-5.3-5.8s2.3-5.8,5.3-5.8c3,0,5.3,2.4,5.3,5.8S741.1,242.8,738,242.8z M755.1,249h7.2v-11.4c0-3.5,1.7-5.9,4.8-5.9
			c1.2,0,2.1,0.2,3.2,0.6V225c-0.9-0.2-1.6-0.3-2.4-0.3c-2.6,0-4.9,1.8-5.7,3.9V225h-7.2V249z M795.7,249.3c1.9,0,3.3-0.2,4.3-0.5
			v-6.4c-0.8,0.3-1.5,0.4-2.6,0.4c-2.9,0-4.1-1.2-4.1-4.1v-7.4h6.7V225h-6.7v-6.7H786v6.7h-4.8v6.3h4.8v8.9
			C786,246.3,790.4,249.3,795.7,249.3z M804.6,249h7.2v-11.7c0-4.3,2.1-6.3,4.8-6.3c2.6,0,3.9,2,3.9,5.3V249h7.2v-13.9
			c0-6.3-3.4-10.7-9.3-10.7c-3.1,0-5.5,1.3-6.7,3V213h-7.2V249z M844.7,249.5c6,0,11-3.5,12.6-8.5h-7.6c-0.6,1.3-2.5,2.3-4.6,2.3
			c-3.9,0-5.7-2.2-6-4.6h18.5c0.3-9.5-5.9-14.2-12.8-14.2c-7.2,0-12.7,5.3-12.7,12.5C832,244.2,837.3,249.5,844.7,249.5z
			 M844.5,230.2c1.9,0,4.2,1,5,3.8h-10.3C839.9,231.9,841.7,230.2,844.5,230.2z M875.5,249h7.2v-17.7h6.7V225h-6.7v-1.7
			c0-2.9,1.2-4.1,4.1-4.1c1.1,0,1.8,0.1,2.6,0.4v-6.4c-1.1-0.3-2.4-0.5-4.3-0.5c-5.3,0-9.6,3.6-9.6,9.6v2.6h-4.8v6.3h4.8V249z
			 M902,249.5c3.1,0,5.2-1.3,6.4-3v2.4h7.2v-24h-7.2v11.7c0,4.4-1.8,6.3-4.5,6.3c-2.7,0-3.7-2-3.7-5.5V225h-7.2v13.7
			C892.9,245.2,896,249.5,902,249.5z M933.8,249.3c1.9,0,3.3-0.2,4.3-0.5v-6.4c-0.8,0.3-1.5,0.4-2.6,0.4c-2.9,0-4.1-1.2-4.1-4.1
			v-7.4h6.7V225h-6.7v-6.7h-7.2v6.7h-4.8v6.3h4.8v8.9C924.1,246.3,928.5,249.3,933.8,249.3z M951.5,249.5c3.1,0,5.2-1.3,6.4-3v2.4
			h7.2v-24h-7.2v11.7c0,4.4-1.8,6.3-4.5,6.3c-2.7,0-3.7-2-3.7-5.5V225h-7.2v13.7C942.4,245.2,945.5,249.5,951.5,249.5z M971,249h7.2
			v-11.4c0-3.5,1.7-5.9,4.8-5.9c1.2,0,2.1,0.2,3.2,0.6V225c-0.9-0.2-1.6-0.3-2.4-0.3c-2.6,0-4.9,1.8-5.7,3.9V225H971V249z
			 M1000.8,249.5c6,0,11-3.5,12.6-8.5h-7.6c-0.6,1.3-2.5,2.3-4.6,2.3c-3.9,0-5.7-2.2-6-4.6h18.5c0.3-9.5-5.9-14.2-12.8-14.2
			c-7.2,0-12.7,5.3-12.7,12.5C988.1,244.2,993.4,249.5,1000.8,249.5z M1000.6,230.2c1.9,0,4.2,1,5,3.8h-10.3
			C996,231.9,997.8,230.2,1000.6,230.2z M1032.3,232h5.2v-8l3.2,5.1l3.2-5.1v8h5.2v-17.1h-5.1l-3.3,5.4l-3.3-5.4h-5.1V232z
			 M1019.7,232h5.5v-11.7h4.5v-5.4h-14.4v5.4h4.5V232z"/>
		<path class="st5" d="M613.5,350l-14.3,8.3v-16.5L613.5,350z"/>
		<circle class="st6" cx="604" cy="350" r="41"/>
		<path class="st5" d="M674.7,357h2.7l3.4-14.2h-3.1l-2.2,9.4l-4-9.7l-4,9.7l-2.2-9.4h-3.1l3.4,14.2h2.7l3.1-7.5L674.7,357z
			 M680.9,352c0,2.8,2,5.2,4.7,5.2c1.4,0,2.4-0.7,2.9-1.3v1.1h2.7v-10h-2.7v1.1c-0.4-0.6-1.5-1.3-2.9-1.3
			C683,346.8,680.9,349.2,680.9,352z M688.7,352c0,1.6-1,2.7-2.5,2.7s-2.5-1.2-2.5-2.7s1-2.7,2.5-2.7S688.7,350.4,688.7,352z
			 M700.3,356.9v-2.4c-0.3,0.1-0.7,0.2-1.1,0.2c-1.2,0-1.7-0.5-1.7-1.7v-3.6h2.8V347h-2.8v-2.8h-2.7v2.8h-2v2.4h2v4.1
			c0,2.4,1.7,3.6,3.8,3.6C699.3,357.1,699.8,357,700.3,356.9z M711.6,353.2h-2.8c-0.4,0.9-1.1,1.6-2.3,1.6c-1.4,0-2.5-1.1-2.5-2.7
			s1.1-2.7,2.5-2.7c1.2,0,1.9,0.7,2.3,1.6h2.8c-0.5-2.3-2.4-4-5.1-4c-3,0-5.3,2.3-5.3,5.2s2.2,5.2,5.3,5.2
			C709.3,357.2,711.1,355.5,711.6,353.2z M713.3,357h2.7v-4.9c0-1.9,1-2.8,2.2-2.8c1.1,0,1.8,0.9,1.8,2.3v5.4h2.7v-5.9
			c0-2.6-1.4-4.4-3.9-4.4c-1.3,0-2.3,0.6-2.9,1.4V342h-2.7V357z M735.7,356.9v-2.4c-0.3,0.1-0.7,0.2-1.1,0.2c-1.2,0-1.7-0.5-1.7-1.7
			v-3.6h2.8V347h-2.8v-2.8h-2.7v2.8h-2v2.4h2v4.1c0,2.4,1.7,3.6,3.8,3.6C734.7,357.1,735.2,357,735.7,356.9z M737.4,357h2.7v-4.9
			c0-1.9,1-2.8,2.2-2.8c1.1,0,1.8,0.9,1.8,2.3v5.4h2.7v-5.9c0-2.6-1.4-4.4-3.9-4.4c-1.3,0-2.3,0.6-2.9,1.4V342h-2.7V357z
			 M758.9,353.7h-2.9c-0.3,0.7-1.2,1.1-2.1,1.1c-1.7,0-2.6-1-2.7-2.2h7.8c0.1-3.8-2.3-5.9-5.2-5.9c-3,0-5.3,2.2-5.3,5.2
			c0,3,2.2,5.2,5.2,5.2C756.3,357.2,758.3,355.8,758.9,353.7z M753.7,349c0.9,0,2,0.5,2.3,1.8h-4.7C751.6,349.7,752.5,349,753.7,349
			z M765.4,357h9v-2.8h-6.1v-11.4h-2.9V357z M775.6,352.8c0,2.7,1.3,4.4,3.8,4.4c1.3,0,2.2-0.6,2.7-1.4v1.1h2.7v-10h-2.7v4.9
			c0,1.9-0.8,2.8-2.1,2.8c-1.2,0-1.7-0.9-1.7-2.4V347h-2.7V352.8z M787.3,357h2.7v-4.9c0-1.9,0.8-2.8,2-2.8c1.1,0,1.6,0.9,1.6,2.4
			v5.3h2.7v-4.9c0-1.9,0.8-2.8,2-2.8c1.1,0,1.6,0.9,1.6,2.4v5.3h2.7v-5.8c0-2.7-1.4-4.4-3.7-4.4c-1.1,0-2.5,0.6-3.1,1.8
			c-0.6-1.2-1.6-1.8-3.1-1.8c-1.2,0-2.1,0.6-2.7,1.4V347h-2.7V357z M814.8,352c0-2.9-2.4-5.2-5.3-5.2s-5.3,2.3-5.3,5.2
			s2.4,5.2,5.3,5.2S814.8,354.9,814.8,352z M807.1,352c0-1.5,1.1-2.7,2.5-2.7s2.5,1.1,2.5,2.7s-1,2.7-2.5,2.7S807.1,353.5,807.1,352
			z M824.7,354.2c0-1.6-0.8-2.6-2.8-3.1l-1.8-0.5c-0.6-0.1-1.1-0.4-1.1-0.9c0-0.5,0.5-0.8,1.2-0.8c0.6,0,1.2,0.3,1.3,1h2.8
			c-0.2-2-1.8-3.2-4-3.2c-2.5,0-4,1.2-4,3c0,1.5,0.8,2.7,2.5,3.1l1.9,0.5c0.9,0.2,1.3,0.5,1.3,1c0,0.5-0.4,0.8-1.3,0.8
			c-0.9,0-1.6-0.4-1.7-1.3H816c0.1,2,1.9,3.4,4.5,3.4C822.9,357.2,824.7,356.1,824.7,354.2z M838.8,354.2c0-1.6-0.8-2.6-2.8-3.1
			l-1.8-0.5c-0.6-0.1-1.1-0.4-1.1-0.9c0-0.5,0.5-0.8,1.2-0.8c0.6,0,1.2,0.3,1.3,1h2.8c-0.2-2-1.8-3.2-4-3.2c-2.5,0-4,1.2-4,3
			c0,1.5,0.8,2.7,2.5,3.1l1.9,0.5c0.9,0.2,1.3,0.5,1.3,1c0,0.5-0.4,0.8-1.3,0.8c-0.9,0-1.6-0.4-1.7-1.3h-2.9c0.1,2,1.9,3.4,4.5,3.4
			C837.1,357.2,838.8,356.1,838.8,354.2z M846.9,356.9v-2.4c-0.3,0.1-0.7,0.2-1.1,0.2c-1.2,0-1.7-0.5-1.7-1.7v-3.6h2.8V347h-2.8
			v-2.8h-2.7v2.8h-2v2.4h2v4.1c0,2.4,1.7,3.6,3.8,3.6C846,357.1,846.5,357,846.9,356.9z M858.4,352c0-2.9-2.4-5.2-5.3-5.2
			c-2.9,0-5.3,2.3-5.3,5.2s2.4,5.2,5.3,5.2C856.1,357.2,858.4,354.9,858.4,352z M850.7,352c0-1.5,1.1-2.7,2.5-2.7
			c1.4,0,2.5,1.1,2.5,2.7s-1,2.7-2.5,2.7C851.7,354.7,850.7,353.5,850.7,352z M860.2,357h2.7v-4.8c0-1.6,0.9-2.7,2.2-2.7
			c0.4,0,0.8,0.1,1.2,0.2V347c-0.3-0.1-0.6-0.1-0.9-0.1c-1.1,0-2.1,0.7-2.5,1.7V347h-2.7V357z M871.7,361.2L878,347h-3l-2.7,6.5
			l-2.7-6.5h-3l4.2,9.4l-2.1,4.7H871.7z"/>
	</g>
</g>
</svg>
